0
SECTION
2
HEADER
9
$ACADVER
1
AC1009
9
$INSUNITS
70
4
9
$MEASUREMENT
70
1
0
ENDSEC
0
SECTION
2
ENTITIES
0
POLYLINE
8
0
66
1
10
0.0
20
0.0
30
0.0
70
1
0
VERTEX
8
0
10
0.0000
20
114.8699
30
0.0
0
VERTEX
8
0
10
17.4522
20
114.8699
30
0.0
0
VERTEX
8
0
10
17.4522
20
99.4688
30
0.0
0
VERTEX
8
0
10
18.2398
20
99.4305
30
0.0
0
VERTEX
8
0
10
18.4904
20
99.4181
30
0.0
0
VERTEX
8
0
10
18.7409
20
99.4055
30
0.0
0
VERTEX
8
0
10
19.2420
20
99.3798
30
0.0
0
VERTEX
8
0
10
19.4926
20
99.3666
30
0.0
0
VERTEX
8
0
10
19.9936
20
99.3397
30
0.0
0
VERTEX
8
0
10
20.2441
20
99.3260
30
0.0
0
VERTEX
8
0
10
20.7451
20
99.2979
30
0.0
0
VERTEX
8
0
10
20.9955
20
99.2836
30
0.0
0
VERTEX
8
0
10
21.4965
20
99.2544
30
0.0
0
VERTEX
8
0
10
21.9973
20
99.2244
30
0.0
0
VERTEX
8
0
10
22.4978
20
99.1936
30
0.0
0
VERTEX
8
0
10
22.7485
20
99.1780
30
0.0
0
VERTEX
8
0
10
23.2493
20
99.1460
30
0.0
0
VERTEX
8
0
10
23.7500
20
99.1133
30
0.0
0
VERTEX
8
0
10
24.0003
20
99.0967
30
0.0
0
VERTEX
8
0
10
24.5006
20
99.0628
30
0.0
0
VERTEX
8
0
10
24.7512
20
99.0456
30
0.0
0
VERTEX
8
0
10
25.2517
20
99.0106
30
0.0
0
VERTEX
8
0
10
25.7522
20
98.9747
30
0.0
0
VERTEX
8
0
10
26.2526
20
98.9382
30
0.0
0
VERTEX
8
0
10
26.5028
20
98.9196
30
0.0
0
VERTEX
8
0
10
27.0032
20
98.8818
30
0.0
0
VERTEX
8
0
10
27.5032
20
98.8434
30
0.0
0
VERTEX
8
0
10
27.7536
20
98.8238
30
0.0
0
VERTEX
8
0
10
28.2538
20
98.7841
30
0.0
0
VERTEX
8
0
10
28.7536
20
98.7437
30
0.0
0
VERTEX
8
0
10
29.0039
20
98.7231
30
0.0
0
VERTEX
8
0
10
29.2540
20
98.7024
30
0.0
0
VERTEX
8
0
10
29.7540
20
98.6604
30
0.0
0
VERTEX
8
0
10
30.2539
20
98.6177
30
0.0
0
VERTEX
8
0
10
30.7538
20
98.5741
30
0.0
0
VERTEX
8
0
10
31.2536
20
98.5298
30
0.0
0
VERTEX
8
0
10
31.7530
20
98.4847
30
0.0
0
VERTEX
8
0
10
32.0031
20
98.4619
30
0.0
0
VERTEX
8
0
10
32.5027
20
98.4156
30
0.0
0
VERTEX
8
0
10
33.0023
20
98.3686
30
0.0
0
VERTEX
8
0
10
33.2521
20
98.3448
30
0.0
0
VERTEX
8
0
10
33.7515
20
98.2966
30
0.0
0
VERTEX
8
0
10
34.2506
20
98.2477
30
0.0
0
VERTEX
8
0
10
34.5005
20
98.2229
30
0.0
0
VERTEX
8
0
10
34.9998
20
98.1728
30
0.0
0
VERTEX
8
0
10
35.4987
20
98.1219
30
0.0
0
VERTEX
8
0
10
35.7485
20
98.0962
30
0.0
0
VERTEX
8
0
10
36.2476
20
98.0441
30
0.0
0
VERTEX
8
0
10
36.7462
20
97.9913
30
0.0
0
VERTEX
8
0
10
36.9960
20
97.9646
30
0.0
0
VERTEX
8
0
10
37.4948
20
97.9106
30
0.0
0
VERTEX
8
0
10
37.9936
20
97.8559
30
0.0
0
VERTEX
8
0
10
38.2429
20
97.8282
30
0.0
0
VERTEX
8
0
10
38.7416
20
97.7723
30
0.0
0
VERTEX
8
0
10
39.2401
20
97.7156
30
0.0
0
VERTEX
8
0
10
39.7386
20
97.6582
30
0.0
0
VERTEX
8
0
10
39.9878
20
97.6292
30
0.0
0
VERTEX
8
0
10
40.4861
20
97.5706
30
0.0
0
VERTEX
8
0
10
40.9841
20
97.5112
30
0.0
0
VERTEX
8
0
10
41.2334
20
97.4812
30
0.0
0
VERTEX
8
0
10
41.7315
20
97.4207
30
0.0
0
VERTEX
8
0
10
41.9805
20
97.3901
30
0.0
0
VERTEX
8
0
10
42.4785
20
97.3284
30
0.0
0
VERTEX
8
0
10
42.9764
20
97.2660
30
0.0
0
VERTEX
8
0
10
43.4741
20
97.2027
30
0.0
0
VERTEX
8
0
10
43.7230
20
97.1708
30
0.0
0
VERTEX
8
0
10
44.2206
20
97.1065
30
0.0
0
VERTEX
8
0
10
44.7181
20
97.0413
30
0.0
0
VERTEX
8
0
10
44.9668
20
97.0084
30
0.0
0
VERTEX
8
0
10
45.4642
20
96.9421
30
0.0
0
VERTEX
8
0
10
45.9611
20
96.8751
30
0.0
0
VERTEX
8
0
10
46.2100
20
96.8412
30
0.0
0
VERTEX
8
0
10
46.7071
20
96.7730
30
0.0
0
VERTEX
8
0
10
47.2038
20
96.7040
30
0.0
0
VERTEX
8
0
10
47.4526
20
96.6692
30
0.0
0
VERTEX
8
0
10
47.7010
20
96.6342
30
0.0
0
VERTEX
8
0
10
48.1978
20
96.5637
30
0.0
0
VERTEX
8
0
10
48.6944
20
96.4924
30
0.0
0
VERTEX
8
0
10
49.1910
20
96.4203
30
0.0
0
VERTEX
8
0
10
49.6872
20
96.3475
30
0.0
0
VERTEX
8
0
10
49.9356
20
96.3107
30
0.0
0
VERTEX
8
0
10
50.4319
20
96.2367
30
0.0
0
VERTEX
8
0
10
50.9278
20
96.1620
30
0.0
0
VERTEX
8
0
10
51.1761
20
96.1243
30
0.0
0
VERTEX
8
0
10
51.6721
20
96.0484
30
0.0
0
VERTEX
8
0
10
52.1679
20
95.9717
30
0.0
0
VERTEX
8
0
10
52.4158
20
95.9331
30
0.0
0
VERTEX
8
0
10
52.9112
20
95.8553
30
0.0
0
VERTEX
8
0
10
53.1593
20
95.8160
30
0.0
0
VERTEX
8
0
10
53.6548
20
95.7370
30
0.0
0
VERTEX
8
0
10
54.1502
20
95.6573
30
0.0
0
VERTEX
8
0
10
54.6455
20
95.5768
30
0.0
0
VERTEX
8
0
10
54.8930
20
95.5362
30
0.0
0
VERTEX
8
0
10
55.1406
20
95.4955
30
0.0
0
VERTEX
8
0
10
55.6356
20
95.4134
30
0.0
0
VERTEX
8
0
10
56.1305
20
95.3306
30
0.0
0
VERTEX
8
0
10
56.6249
20
95.2471
30
0.0
0
VERTEX
8
0
10
56.8726
20
95.2050
30
0.0
0
VERTEX
8
0
10
57.3671
20
95.1202
30
0.0
0
VERTEX
8
0
10
57.6143
20
95.0776
30
0.0
0
VERTEX
8
0
10
58.1087
20
94.9917
30
0.0
0
VERTEX
8
0
10
58.6026
20
94.9051
30
0.0
0
VERTEX
8
0
10
58.8500
20
94.8615
30
0.0
0
VERTEX
8
0
10
59.3440
20
94.7737
30
0.0
0
VERTEX
8
0
10
59.8376
20
94.6852
30
0.0
0
VERTEX
8
0
10
60.0848
20
94.6405
30
0.0
0
VERTEX
8
0
10
60.5785
20
94.5508
30
0.0
0
VERTEX
8
0
10
61.0720
20
94.4604
30
0.0
0
VERTEX
8
0
10
61.5651
20
94.3692
30
0.0
0
VERTEX
8
0
10
61.8120
20
94.3233
30
0.0
0
VERTEX
8
0
10
62.3052
20
94.2309
30
0.0
0
VERTEX
8
0
10
62.7983
20
94.1377
30
0.0
0
VERTEX
8
0
10
63.0447
20
94.0909
30
0.0
0
VERTEX
8
0
10
63.5376
20
93.9966
30
0.0
0
VERTEX
8
0
10
63.7839
20
93.9492
30
0.0
0
VERTEX
8
0
10
64.0302
20
93.9016
30
0.0
0
VERTEX
8
0
10
64.5228
20
93.8058
30
0.0
0
VERTEX
8
0
10
64.7690
20
93.7576
30
0.0
0
VERTEX
8
0
10
65.2613
20
93.6606
30
0.0
0
VERTEX
8
0
10
65.7534
20
93.5629
30
0.0
0
VERTEX
8
0
10
65.9995
20
93.5138
30
0.0
0
VERTEX
8
0
10
66.4914
20
93.4149
30
0.0
0
VERTEX
8
0
10
66.7373
20
93.3652
30
0.0
0
VERTEX
8
0
10
67.2290
20
93.2652
30
0.0
0
VERTEX
8
0
10
70.8868
20
92.5169
30
0.0
0
VERTEX
8
0
10
71.1798
20
93.7584
30
0.0
0
VERTEX
8
0
10
63.4028
20
95.8422
30
0.0
0
VERTEX
8
0
10
67.2075
20
110.0413
30
0.0
0
VERTEX
8
0
10
83.0452
20
105.7976
30
0.0
0
VERTEX
8
0
10
79.2405
20
91.5985
30
0.0
0
VERTEX
8
0
10
74.2334
20
92.9402
30
0.0
0
VERTEX
8
0
10
73.8733
20
91.7718
30
0.0
0
VERTEX
8
0
10
77.4655
20
90.5172
30
0.0
0
VERTEX
8
0
10
77.7045
20
90.4330
30
0.0
0
VERTEX
8
0
10
77.9432
20
90.3480
30
0.0
0
VERTEX
8
0
10
78.1816
20
90.2624
30
0.0
0
VERTEX
8
0
10
78.4198
20
90.1761
30
0.0
0
VERTEX
8
0
10
78.6577
20
90.0891
30
0.0
0
VERTEX
8
0
10
78.8954
20
90.0014
30
0.0
0
VERTEX
8
0
10
79.1328
20
89.9129
30
0.0
0
VERTEX
8
0
10
79.3699
20
89.8238
30
0.0
0
VERTEX
8
0
10
79.6068
20
89.7340
30
0.0
0
VERTEX
8
0
10
80.3679
20
89.4430
30
0.0
0
VERTEX
8
0
10
88.3592
20
103.2843
30
0.0
0
VERTEX
8
0
10
88.6250
20
103.1308
30
0.0
0
VERTEX
8
0
10
88.7250
20
103.1308
30
0.0
0
VERTEX
8
0
10
89.1733
20
102.8720
30
0.0
0
VERTEX
8
0
10
89.4248
20
103.1235
30
0.0
0
VERTEX
8
0
10
89.4250
20
108.2769
30
0.0
0
VERTEX
8
0
10
89.6760
20
108.2769
30
0.0
0
VERTEX
8
0
10
89.6760
20
111.1619
30
0.0
0
VERTEX
8
0
10
73.0358
20
111.1619
30
0.0
0
VERTEX
8
0
10
73.0358
20
125.8619
30
0.0
0
VERTEX
8
0
10
89.6760
20
125.8619
30
0.0
0
VERTEX
8
0
10
89.6760
20
128.1799
30
0.0
0
VERTEX
8
0
10
73.0358
20
128.1799
30
0.0
0
VERTEX
8
0
10
73.0358
20
142.8799
30
0.0
0
VERTEX
8
0
10
89.0960
20
142.8799
30
0.0
0
VERTEX
8
0
10
89.0960
20
145.1699
30
0.0
0
VERTEX
8
0
10
73.0558
20
145.1699
30
0.0
0
VERTEX
8
0
10
73.0558
20
159.8699
30
0.0
0
VERTEX
8
0
10
89.0960
20
159.8699
30
0.0
0
VERTEX
8
0
10
89.0960
20
160.4412
30
0.0
0
VERTEX
8
0
10
89.0751
20
160.5879
30
0.0
0
VERTEX
8
0
10
89.0227
20
160.7031
30
0.0
0
VERTEX
8
0
10
88.9401
20
160.7991
30
0.0
0
VERTEX
8
0
10
88.8265
20
160.8729
30
0.0
0
VERTEX
8
0
10
88.6239
20
160.9467
30
0.0
0
VERTEX
8
0
10
88.3893
20
161.0318
30
0.0
0
VERTEX
8
0
10
88.1545
20
161.1164
30
0.0
0
VERTEX
8
0
10
87.9196
20
161.2007
30
0.0
0
VERTEX
8
0
10
87.6846
20
161.2845
30
0.0
0
VERTEX
8
0
10
87.4494
20
161.3679
30
0.0
0
VERTEX
8
0
10
87.2141
20
161.4509
30
0.0
0
VERTEX
8
0
10
86.9787
20
161.5335
30
0.0
0
VERTEX
8
0
10
86.7430
20
161.6157
30
0.0
0
VERTEX
8
0
10
86.5073
20
161.6975
30
0.0
0
VERTEX
8
0
10
86.2714
20
161.7789
30
0.0
0
VERTEX
8
0
10
86.0354
20
161.8599
30
0.0
0
VERTEX
8
0
10
85.7992
20
161.9404
30
0.0
0
VERTEX
8
0
10
85.5629
20
162.0206
30
0.0
0
VERTEX
8
0
10
85.3264
20
162.1003
30
0.0
0
VERTEX
8
0
10
85.0898
20
162.1796
30
0.0
0
VERTEX
8
0
10
84.9206
20
162.2360
30
0.0
0
VERTEX
8
0
10
84.6163
20
162.3370
30
0.0
0
VERTEX
8
0
10
84.3793
20
162.4151
30
0.0
0
VERTEX
8
0
10
84.1421
20
162.4928
30
0.0
0
VERTEX
8
0
10
83.9049
20
162.5701
30
0.0
0
VERTEX
8
0
10
83.8043
20
162.6026
30
0.0
0
VERTEX
8
0
10
83.6675
20
162.6469
30
0.0
0
VERTEX
8
0
10
83.4299
20
162.7234
30
0.0
0
VERTEX
8
0
10
83.1923
20
162.7994
30
0.0
0
VERTEX
8
0
10
82.9545
20
162.8750
30
0.0
0
VERTEX
8
0
10
82.7165
20
162.9502
30
0.0
0
VERTEX
8
0
10
82.4785
20
163.0250
30
0.0
0
VERTEX
8
0
10
82.2403
20
163.0994
30
0.0
0
VERTEX
8
0
10
82.0020
20
163.1734
30
0.0
0
VERTEX
8
0
10
81.7635
20
163.2469
30
0.0
0
VERTEX
8
0
10
81.5249
20
163.3201
30
0.0
0
VERTEX
8
0
10
81.2862
20
163.3928
30
0.0
0
VERTEX
8
0
10
81.0474
20
163.4651
30
0.0
0
VERTEX
8
0
10
80.8085
20
163.5370
30
0.0
0
VERTEX
8
0
10
80.5694
20
163.6085
30
0.0
0
VERTEX
8
0
10
80.3302
20
163.6795
30
0.0
0
VERTEX
8
0
10
80.0909
20
163.7502
30
0.0
0
VERTEX
8
0
10
79.8514
20
163.8204
30
0.0
0
VERTEX
8
0
10
79.6118
20
163.8902
30
0.0
0
VERTEX
8
0
10
79.3721
20
163.9596
30
0.0
0
VERTEX
8
0
10
79.1512
20
164.0232
30
0.0
0
VERTEX
8
0
10
78.8924
20
164.0972
30
0.0
0
VERTEX
8
0
10
78.6524
20
164.1653
30
0.0
0
VERTEX
8
0
10
78.4122
20
164.2331
30
0.0
0
VERTEX
8
0
10
78.1719
20
164.3004
30
0.0
0
VERTEX
8
0
10
77.9315
20
164.3673
30
0.0
0
VERTEX
8
0
10
77.6910
20
164.4338
30
0.0
0
VERTEX
8
0
10
77.4504
20
164.4998
30
0.0
0
VERTEX
8
0
10
77.2096
20
164.5655
30
0.0
0
VERTEX
8
0
10
76.9688
20
164.6307
30
0.0
0
VERTEX
8
0
10
76.7278
20
164.6955
30
0.0
0
VERTEX
8
0
10
76.4867
20
164.7599
30
0.0
0
VERTEX
8
0
10
76.2455
20
164.8239
30
0.0
0
VERTEX
8
0
10
76.0042
20
164.8874
30
0.0
0
VERTEX
8
0
10
75.7628
20
164.9506
30
0.0
0
VERTEX
8
0
10
75.5213
20
165.0133
30
0.0
0
VERTEX
8
0
10
75.2797
20
165.0756
30
0.0
0
VERTEX
8
0
10
75.0379
20
165.1375
30
0.0
0
VERTEX
8
0
10
74.7961
20
165.1989
30
0.0
0
VERTEX
8
0
10
74.5541
20
165.2600
30
0.0
0
VERTEX
8
0
10
74.3121
20
165.3206
30
0.0
0
VERTEX
8
0
10
74.0699
20
165.3808
30
0.0
0
VERTEX
8
0
10
73.8276
20
165.4406
30
0.0
0
VERTEX
8
0
10
73.5853
20
165.4999
30
0.0
0
VERTEX
8
0
10
73.3428
20
165.5589
30
0.0
0
VERTEX
8
0
10
73.1002
20
165.6174
30
0.0
0
VERTEX
8
0
10
72.8575
20
165.6755
30
0.0
0
VERTEX
8
0
10
72.6148
20
165.7331
30
0.0
0
VERTEX
8
0
10
72.3719
20
165.7904
30
0.0
0
VERTEX
8
0
10
72.1289
20
165.8472
30
0.0
0
VERTEX
8
0
10
71.8858
20
165.9036
30
0.0
0
VERTEX
8
0
10
71.6427
20
165.9596
30
0.0
0
VERTEX
8
0
10
71.3994
20
166.0152
30
0.0
0
VERTEX
8
0
10
71.1560
20
166.0703
30
0.0
0
VERTEX
8
0
10
70.9126
20
166.1250
30
0.0
0
VERTEX
8
0
10
70.6690
20
166.1793
30
0.0
0
VERTEX
8
0
10
70.4254
20
166.2332
30
0.0
0
VERTEX
8
0
10
70.1816
20
166.2866
30
0.0
0
VERTEX
8
0
10
69.9378
20
166.3397
30
0.0
0
VERTEX
8
0
10
69.6939
20
166.3923
30
0.0
0
VERTEX
8
0
10
69.5390
20
166.4254
30
0.0
0
VERTEX
8
0
10
69.4498
20
166.4444
30
0.0
0
VERTEX
8
0
10
69.2057
20
166.4962
30
0.0
0
VERTEX
8
0
10
68.9615
20
166.5475
30
0.0
0
VERTEX
8
0
10
68.7173
20
166.5984
30
0.0
0
VERTEX
8
0
10
68.4729
20
166.6489
30
0.0
0
VERTEX
8
0
10
68.2284
20
166.6990
30
0.0
0
VERTEX
8
0
10
67.9839
20
166.7486
30
0.0
0
VERTEX
8
0
10
67.7392
20
166.7978
30
0.0
0
VERTEX
8
0
10
67.4945
20
166.8466
30
0.0
0
VERTEX
8
0
10
67.2497
20
166.8950
30
0.0
0
VERTEX
8
0
10
67.0048
20
166.9429
30
0.0
0
VERTEX
8
0
10
66.7599
20
166.9904
30
0.0
0
VERTEX
8
0
10
66.5148
20
167.0375
30
0.0
0
VERTEX
8
0
10
66.2594
20
167.0861
30
0.0
0
VERTEX
8
0
10
66.0245
20
167.1304
30
0.0
0
VERTEX
8
0
10
65.7792
20
167.1762
30
0.0
0
VERTEX
8
0
10
65.5338
20
167.2216
30
0.0
0
VERTEX
8
0
10
65.2884
20
167.2665
30
0.0
0
VERTEX
8
0
10
65.0428
20
167.3110
30
0.0
0
VERTEX
8
0
10
64.7972
20
167.3551
30
0.0
0
VERTEX
8
0
10
64.5515
20
167.3988
30
0.0
0
VERTEX
8
0
10
64.3936
20
167.4266
30
0.0
0
VERTEX
8
0
10
64.3058
20
167.4421
30
0.0
0
VERTEX
8
0
10
64.0600
20
167.4849
30
0.0
0
VERTEX
8
0
10
63.8140
20
167.5273
30
0.0
0
VERTEX
8
0
10
63.5681
20
167.5692
30
0.0
0
VERTEX
8
0
10
63.3220
20
167.6108
30
0.0
0
VERTEX
8
0
10
63.0759
20
167.6519
30
0.0
0
VERTEX
8
0
10
62.8297
20
167.6926
30
0.0
0
VERTEX
8
0
10
62.5834
20
167.7328
30
0.0
0
VERTEX
8
0
10
62.3371
20
167.7727
30
0.0
0
VERTEX
8
0
10
62.0907
20
167.8121
30
0.0
0
VERTEX
8
0
10
61.8442
20
167.8511
30
0.0
0
VERTEX
8
0
10
61.5977
20
167.8896
30
0.0
0
VERTEX
8
0
10
61.3511
20
167.9277
30
0.0
0
VERTEX
8
0
10
61.1044
20
167.9654
30
0.0
0
VERTEX
8
0
10
60.8577
20
168.0027
30
0.0
0
VERTEX
8
0
10
60.6109
20
168.0395
30
0.0
0
VERTEX
8
0
10
60.3640
20
168.0759
30
0.0
0
VERTEX
8
0
10
60.1171
20
168.1119
30
0.0
0
VERTEX
8
0
10
59.9640
20
168.1339
30
0.0
0
VERTEX
8
0
10
59.8701
20
168.1474
30
0.0
0
VERTEX
8
0
10
59.6231
20
168.1826
30
0.0
0
VERTEX
8
0
10
59.3759
20
168.2173
30
0.0
0
VERTEX
8
0
10
59.1288
20
168.2515
30
0.0
0
VERTEX
8
0
10
58.8815
20
168.2853
30
0.0
0
VERTEX
8
0
10
58.6343
20
168.3187
30
0.0
0
VERTEX
8
0
10
58.3869
20
168.3517
30
0.0
0
VERTEX
8
0
10
58.1395
20
168.3843
30
0.0
0
VERTEX
8
0
10
57.8921
20
168.4164
30
0.0
0
VERTEX
8
0
10
57.6445
20
168.4481
30
0.0
0
VERTEX
8
0
10
57.3970
20
168.4793
30
0.0
0
VERTEX
8
0
10
57.1494
20
168.5101
30
0.0
0
VERTEX
8
0
10
56.9017
20
168.5405
30
0.0
0
VERTEX
8
0
10
56.6539
20
168.5705
30
0.0
0
VERTEX
8
0
10
56.4062
20
168.6000
30
0.0
0
VERTEX
8
0
10
56.1583
20
168.6291
30
0.0
0
VERTEX
8
0
10
55.9105
20
168.6578
30
0.0
0
VERTEX
8
0
10
55.6625
20
168.6861
30
0.0
0
VERTEX
8
0
10
55.4146
20
168.7139
30
0.0
0
VERTEX
8
0
10
55.1665
20
168.7413
30
0.0
0
VERTEX
8
0
10
54.9476
20
168.7651
30
0.0
0
VERTEX
8
0
10
54.6703
20
168.7947
30
0.0
0
VERTEX
8
0
10
54.4222
20
168.8208
30
0.0
0
VERTEX
8
0
10
54.1740
20
168.8465
30
0.0
0
VERTEX
8
0
10
53.9257
20
168.8717
30
0.0
0
VERTEX
8
0
10
53.6774
20
168.8965
30
0.0
0
VERTEX
8
0
10
53.4522
20
168.9186
30
0.0
0
VERTEX
8
0
10
53.4522
20
153.1699
30
0.0
0
VERTEX
8
0
10
37.0558
20
153.1699
30
0.0
0
VERTEX
8
0
10
37.0558
20
168.3284
30
0.0
0
VERTEX
8
0
10
36.8482
20
168.2968
30
0.0
0
VERTEX
8
0
10
36.6021
20
168.2585
30
0.0
0
VERTEX
8
0
10
36.3561
20
168.2192
30
0.0
0
VERTEX
8
0
10
36.1103
20
168.1791
30
0.0
0
VERTEX
8
0
10
35.8647
20
168.1380
30
0.0
0
VERTEX
8
0
10
35.6192
20
168.0961
30
0.0
0
VERTEX
8
0
10
35.3738
20
168.0532
30
0.0
0
VERTEX
8
0
10
35.1286
20
168.0095
30
0.0
0
VERTEX
8
0
10
34.8836
20
167.9649
30
0.0
0
VERTEX
8
0
10
34.6387
20
167.9194
30
0.0
0
VERTEX
8
0
10
34.5848
20
167.9092
30
0.0
0
VERTEX
8
0
10
34.3940
20
167.8730
30
0.0
0
VERTEX
8
0
10
34.1495
20
167.8257
30
0.0
0
VERTEX
8
0
10
33.9051
20
167.7775
30
0.0
0
VERTEX
8
0
10
33.6609
20
167.7285
30
0.0
0
VERTEX
8
0
10
33.6069
20
167.7174
30
0.0
0
VERTEX
8
0
10
33.4169
20
167.6785
30
0.0
0
VERTEX
8
0
10
33.1731
20
167.6277
30
0.0
0
VERTEX
8
0
10
32.9295
20
167.5759
30
0.0
0
VERTEX
8
0
10
32.6860
20
167.5233
30
0.0
0
VERTEX
8
0
10
32.4428
20
167.4698
30
0.0
0
VERTEX
8
0
10
32.1997
20
167.4154
30
0.0
0
VERTEX
8
0
10
31.9569
20
167.3601
30
0.0
0
VERTEX
8
0
10
31.7337
20
167.3085
30
0.0
0
VERTEX
8
0
10
31.4718
20
167.2469
30
0.0
0
VERTEX
8
0
10
31.2295
20
167.1890
30
0.0
0
VERTEX
8
0
10
30.9875
20
167.1302
30
0.0
0
VERTEX
8
0
10
30.7457
20
167.0705
30
0.0
0
VERTEX
8
0
10
30.5041
20
167.0100
30
0.0
0
VERTEX
8
0
10
30.2627
20
166.9485
30
0.0
0
VERTEX
8
0
10
30.0216
20
166.8862
30
0.0
0
VERTEX
8
0
10
29.7807
20
166.8230
30
0.0
0
VERTEX
8
0
10
29.6068
20
166.7767
30
0.0
0
VERTEX
8
0
10
29.5400
20
166.7589
30
0.0
0
VERTEX
8
0
10
29.2996
20
166.6940
30
0.0
0
VERTEX
8
0
10
29.0594
20
166.6281
30
0.0
0
VERTEX
8
0
10
28.8194
20
166.5615
30
0.0
0
VERTEX
8
0
10
28.5797
20
166.4939
30
0.0
0
VERTEX
8
0
10
28.3402
20
166.4254
30
0.0
0
VERTEX
8
0
10
28.1010
20
166.3561
30
0.0
0
VERTEX
8
0
10
27.8620
20
166.2859
30
0.0
0
VERTEX
8
0
10
27.6233
20
166.2149
30
0.0
0
VERTEX
8
0
10
27.3848
20
166.1430
30
0.0
0
VERTEX
8
0
10
27.1466
20
166.0702
30
0.0
0
VERTEX
8
0
10
26.9087
20
165.9965
30
0.0
0
VERTEX
8
0
10
26.6711
20
165.9220
30
0.0
0
VERTEX
8
0
10
26.4337
20
165.8466
30
0.0
0
VERTEX
8
0
10
26.1966
20
165.7703
30
0.0
0
VERTEX
8
0
10
25.9598
20
165.6932
30
0.0
0
VERTEX
8
0
10
25.7232
20
165.6153
30
0.0
0
VERTEX
8
0
10
25.4870
20
165.5364
30
0.0
0
VERTEX
8
0
10
25.2510
20
165.4567
30
0.0
0
VERTEX
8
0
10
25.0153
20
165.3762
30
0.0
0
VERTEX
8
0
10
24.7799
20
165.2948
30
0.0
0
VERTEX
8
0
10
24.5448
20
165.2125
30
0.0
0
VERTEX
8
0
10
24.3323
20
165.1372
30
0.0
0
VERTEX
8
0
10
24.0756
20
165.0454
30
0.0
0
VERTEX
8
0
10
23.8414
20
164.9606
30
0.0
0
VERTEX
8
0
10
23.6075
20
164.8749
30
0.0
0
VERTEX
8
0
10
23.4791
20
164.8273
30
0.0
0
VERTEX
8
0
10
23.3740
20
164.7884
30
0.0
0
VERTEX
8
0
10
23.1407
20
164.7010
30
0.0
0
VERTEX
8
0
10
22.9078
20
164.6128
30
0.0
0
VERTEX
8
0
10
22.6752
20
164.5237
30
0.0
0
VERTEX
8
0
10
22.4430
20
164.4338
30
0.0
0
VERTEX
8
0
10
22.2110
20
164.3430
30
0.0
0
VERTEX
8
0
10
21.9794
20
164.2514
30
0.0
0
VERTEX
8
0
10
21.7482
20
164.1589
30
0.0
0
VERTEX
8
0
10
21.5172
20
164.0656
30
0.0
0
VERTEX
8
0
10
21.2866
20
163.9715
30
0.0
0
VERTEX
8
0
10
21.0564
20
163.8765
30
0.0
0
VERTEX
8
0
10
20.8265
20
163.7807
30
0.0
0
VERTEX
8
0
10
20.5970
20
163.6841
30
0.0
0
VERTEX
8
0
10
20.3678
20
163.5866
30
0.0
0
VERTEX
8
0
10
20.1389
20
163.4883
30
0.0
0
VERTEX
8
0
10
19.9104
20
163.3891
30
0.0
0
VERTEX
8
0
10
19.6823
20
163.2892
30
0.0
0
VERTEX
8
0
10
19.4979
20
163.2075
30
0.0
0
VERTEX
8
0
10
19.4546
20
163.1884
30
0.0
0
VERTEX
8
0
10
19.2272
20
163.0867
30
0.0
0
VERTEX
8
0
10
19.0002
20
162.9843
30
0.0
0
VERTEX
8
0
10
18.7735
20
162.8810
30
0.0
0
VERTEX
8
0
10
18.5473
20
162.7769
30
0.0
0
VERTEX
8
0
10
18.3214
20
162.6719
30
0.0
0
VERTEX
8
0
10
18.0959
20
162.5662
30
0.0
0
VERTEX
8
0
10
17.8708
20
162.4596
30
0.0
0
VERTEX
8
0
10
17.6461
20
162.3522
30
0.0
0
VERTEX
8
0
10
17.4217
20
162.2440
30
0.0
0
VERTEX
8
0
10
17.1978
20
162.1350
30
0.0
0
VERTEX
8
0
10
16.9743
20
162.0251
30
0.0
0
VERTEX
8
0
10
16.7511
20
161.9145
30
0.0
0
VERTEX
8
0
10
16.5284
20
161.8030
30
0.0
0
VERTEX
8
0
10
16.3061
20
161.6907
30
0.0
0
VERTEX
8
0
10
16.0842
20
161.5776
30
0.0
0
VERTEX
8
0
10
15.8627
20
161.4637
30
0.0
0
VERTEX
8
0
10
15.6416
20
161.3490
30
0.0
0
VERTEX
8
0
10
15.4209
20
161.2335
30
0.0
0
VERTEX
8
0
10
15.2007
20
161.1172
30
0.0
0
VERTEX
8
0
10
14.9809
20
161.0001
30
0.0
0
VERTEX
8
0
10
14.7615
20
160.8822
30
0.0
0
VERTEX
8
0
10
14.5425
20
160.7635
30
0.0
0
VERTEX
8
0
10
14.3240
20
160.6440
30
0.0
0
VERTEX
8
0
10
14.1059
20
160.5237
30
0.0
0
VERTEX
8
0
10
13.8883
20
160.4026
30
0.0
0
VERTEX
8
0
10
13.6711
20
160.2808
30
0.0
0
VERTEX
8
0
10
13.4543
20
160.1581
30
0.0
0
VERTEX
8
0
10
13.2380
20
160.0346
30
0.0
0
VERTEX
8
0
10
13.0221
20
159.9104
30
0.0
0
VERTEX
8
0
10
12.8067
20
159.7854
30
0.0
0
VERTEX
8
0
10
12.5918
20
159.6596
30
0.0
0
VERTEX
8
0
10
12.3773
20
159.5330
30
0.0
0
VERTEX
8
0
10
12.1632
20
159.4056
30
0.0
0
VERTEX
8
0
10
11.9497
20
159.2775
30
0.0
0
VERTEX
8
0
10
11.7366
20
159.1485
30
0.0
0
VERTEX
8
0
10
11.5239
20
159.0188
30
0.0
0
VERTEX
8
0
10
11.3118
20
158.8884
30
0.0
0
VERTEX
8
0
10
11.1001
20
158.7571
30
0.0
0
VERTEX
8
0
10
10.8889
20
158.6251
30
0.0
0
VERTEX
8
0
10
10.6782
20
158.4923
30
0.0
0
VERTEX
8
0
10
10.4680
20
158.3588
30
0.0
0
VERTEX
8
0
10
10.2582
20
158.2245
30
0.0
0
VERTEX
8
0
10
10.0490
20
158.0894
30
0.0
0
VERTEX
8
0
10
9.8402
20
157.9535
30
0.0
0
VERTEX
8
0
10
9.6319
20
157.8170
30
0.0
0
VERTEX
8
0
10
9.4242
20
157.6796
30
0.0
0
VERTEX
8
0
10
9.2169
20
157.5415
30
0.0
0
VERTEX
8
0
10
9.0731
20
157.4449
30
0.0
0
VERTEX
8
0
10
9.0101
20
157.4026
30
0.0
0
VERTEX
8
0
10
8.8039
20
157.2630
30
0.0
0
VERTEX
8
0
10
8.5981
20
157.1227
30
0.0
0
VERTEX
8
0
10
8.3929
20
156.9815
30
0.0
0
VERTEX
8
0
10
8.1882
20
156.8397
30
0.0
0
VERTEX
8
0
10
7.9840
20
156.6971
30
0.0
0
VERTEX
8
0
10
7.7803
20
156.5537
30
0.0
0
VERTEX
8
0
10
7.5771
20
156.4097
30
0.0
0
VERTEX
8
0
10
7.3745
20
156.2648
30
0.0
0
VERTEX
8
0
10
7.1724
20
156.1193
30
0.0
0
VERTEX
8
0
10
6.9708
20
155.9730
30
0.0
0
VERTEX
8
0
10
6.7698
20
155.8260
30
0.0
0
VERTEX
8
0
10
6.5693
20
155.6782
30
0.0
0
VERTEX
8
0
10
6.3693
20
155.5297
30
0.0
0
VERTEX
8
0
10
6.1699
20
155.3805
30
0.0
0
VERTEX
8
0
10
5.9710
20
155.2306
30
0.0
0
VERTEX
8
0
10
5.7727
20
155.0799
30
0.0
0
VERTEX
8
0
10
5.5749
20
154.9285
30
0.0
0
VERTEX
8
0
10
5.3777
20
154.7764
30
0.0
0
VERTEX
8
0
10
5.1810
20
154.6236
30
0.0
0
VERTEX
8
0
10
4.9849
20
154.4701
30
0.0
0
VERTEX
8
0
10
4.7893
20
154.3158
30
0.0
0
VERTEX
8
0
10
4.5944
20
154.1609
30
0.0
0
VERTEX
8
0
10
4.3999
20
154.0052
30
0.0
0
VERTEX
8
0
10
4.2061
20
153.8489
30
0.0
0
VERTEX
8
0
10
4.0128
20
153.6918
30
0.0
0
VERTEX
8
0
10
3.8201
20
153.5340
30
0.0
0
VERTEX
8
0
10
3.6279
20
153.3755
30
0.0
0
VERTEX
8
0
10
3.4364
20
153.2164
30
0.0
0
VERTEX
8
0
10
3.2454
20
153.0565
30
0.0
0
VERTEX
8
0
10
3.1682
20
152.9914
30
0.0
0
VERTEX
8
0
10
3.0550
20
152.8959
30
0.0
0
VERTEX
8
0
10
2.8652
20
152.7347
30
0.0
0
VERTEX
8
0
10
2.6759
20
152.5727
30
0.0
0
VERTEX
8
0
10
2.4829
20
152.4063
30
0.0
0
VERTEX
8
0
10
2.2906
20
152.2518
30
0.0
0
VERTEX
8
0
10
2.1188
20
152.0956
30
0.0
0
VERTEX
8
0
10
1.9570
20
151.9290
30
0.0
0
VERTEX
8
0
10
1.8059
20
151.7527
30
0.0
0
VERTEX
8
0
10
1.6658
20
151.5675
30
0.0
0
VERTEX
8
0
10
1.5375
20
151.3740
30
0.0
0
VERTEX
8
0
10
1.4213
20
151.1729
30
0.0
0
VERTEX
8
0
10
1.3178
20
150.9651
30
0.0
0
VERTEX
8
0
10
1.2272
20
150.7513
30
0.0
0
VERTEX
8
0
10
1.1647
20
150.5737
30
0.0
0
VERTEX
8
0
10
1.1860
20
148.8699
30
0.0
0
VERTEX
8
0
10
17.4522
20
148.8699
30
0.0
0
VERTEX
8
0
10
17.4522
20
134.1699
30
0.0
0
VERTEX
8
0
10
1.2700
20
134.1699
30
0.0
0
VERTEX
8
0
10
1.2700
20
131.8699
30
0.0
0
VERTEX
8
0
10
17.4522
20
131.8699
30
0.0
0
VERTEX
8
0
10
17.4522
20
117.1699
30
0.0
0
VERTEX
8
0
10
0.0000
20
117.1699
30
0.0
0
SEQEND
8
0
0
POLYLINE
8
0
66
1
10
0.0
20
0.0
30
0.0
70
1
0
VERTEX
8
0
10
17.8853
20
108.4823
30
0.0
0
VERTEX
8
0
10
18.8159
20
109.5434
30
0.0
0
VERTEX
8
0
10
18.9635
20
109.6729
30
0.0
0
VERTEX
8
0
10
19.1267
20
109.7819
30
0.0
0
VERTEX
8
0
10
19.3027
20
109.8687
30
0.0
0
VERTEX
8
0
10
19.4886
20
109.9318
30
0.0
0
VERTEX
8
0
10
19.6811
20
109.9701
30
0.0
0
VERTEX
8
0
10
19.8770
20
109.9830
30
0.0
0
VERTEX
8
0
10
20.0729
20
109.9701
30
0.0
0
VERTEX
8
0
10
20.2654
20
109.9318
30
0.0
0
VERTEX
8
0
10
20.4513
20
109.8687
30
0.0
0
VERTEX
8
0
10
20.6273
20
109.7819
30
0.0
0
VERTEX
8
0
10
20.7905
20
109.6729
30
0.0
0
VERTEX
8
0
10
20.9381
20
109.5434
30
0.0
0
VERTEX
8
0
10
21.0675
20
109.3959
30
0.0
0
VERTEX
8
0
10
21.1766
20
109.2326
30
0.0
0
VERTEX
8
0
10
21.2634
20
109.0566
30
0.0
0
VERTEX
8
0
10
21.3265
20
108.8707
30
0.0
0
VERTEX
8
0
10
21.3609
20
108.6977
30
0.0
0
VERTEX
8
0
10
21.3648
20
108.6782
30
0.0
0
VERTEX
8
0
10
21.3776
20
108.4823
30
0.0
0
VERTEX
8
0
10
21.3648
20
108.2865
30
0.0
0
VERTEX
8
0
10
21.3304
20
108.1135
30
0.0
0
VERTEX
8
0
10
21.3265
20
108.0939
30
0.0
0
VERTEX
8
0
10
21.2634
20
107.9081
30
0.0
0
VERTEX
8
0
10
21.1766
20
107.7320
30
0.0
0
VERTEX
8
0
10
21.0675
20
107.5688
30
0.0
0
VERTEX
8
0
10
20.9381
20
107.4212
30
0.0
0
VERTEX
8
0
10
20.7905
20
107.2918
30
0.0
0
VERTEX
8
0
10
20.6439
20
107.1938
30
0.0
0
VERTEX
8
0
10
20.6273
20
107.1827
30
0.0
0
VERTEX
8
0
10
20.4513
20
107.0959
30
0.0
0
VERTEX
8
0
10
20.2654
20
107.0328
30
0.0
0
VERTEX
8
0
10
20.0924
20
106.9984
30
0.0
0
VERTEX
8
0
10
20.0729
20
106.9945
30
0.0
0
VERTEX
8
0
10
19.8770
20
106.9817
30
0.0
0
VERTEX
8
0
10
19.6811
20
106.9945
30
0.0
0
VERTEX
8
0
10
19.4886
20
107.0328
30
0.0
0
VERTEX
8
0
10
19.3027
20
107.0959
30
0.0
0
VERTEX
8
0
10
19.1267
20
107.1827
30
0.0
0
VERTEX
8
0
10
18.9800
20
107.2807
30
0.0
0
VERTEX
8
0
10
18.9635
20
107.2918
30
0.0
0
VERTEX
8
0
10
18.8159
20
107.4212
30
0.0
0
SEQEND
8
0
0
POLYLINE
8
0
66
1
10
0.0
20
0.0
30
0.0
70
1
0
VERTEX
8
0
10
55.0558
20
147.6699
30
0.0
0
VERTEX
8
0
10
55.0558
20
162.3699
30
0.0
0
VERTEX
8
0
10
71.7220
20
162.3699
30
0.0
0
VERTEX
8
0
10
71.8665
20
163.0963
30
0.0
0
VERTEX
8
0
10
71.9296
20
163.2822
30
0.0
0
VERTEX
8
0
10
72.0164
20
163.4583
30
0.0
0
VERTEX
8
0
10
72.1255
20
163.6215
30
0.0
0
VERTEX
8
0
10
72.2549
20
163.7690
30
0.0
0
VERTEX
8
0
10
72.3875
20
163.8853
30
0.0
0
VERTEX
8
0
10
72.4025
20
163.8985
30
0.0
0
VERTEX
8
0
10
72.5657
20
164.0075
30
0.0
0
VERTEX
8
0
10
72.7417
20
164.0943
30
0.0
0
VERTEX
8
0
10
72.9276
20
164.1574
30
0.0
0
VERTEX
8
0
10
73.7481
20
164.3207
30
0.0
0
VERTEX
8
0
10
74.3771
20
163.7690
30
0.0
0
VERTEX
8
0
10
74.5065
20
163.6215
30
0.0
0
VERTEX
8
0
10
74.6156
20
163.4583
30
0.0
0
VERTEX
8
0
10
74.7024
20
163.2822
30
0.0
0
VERTEX
8
0
10
74.7655
20
163.0963
30
0.0
0
VERTEX
8
0
10
74.8038
20
162.9038
30
0.0
0
VERTEX
8
0
10
74.8166
20
162.7079
30
0.0
0
VERTEX
8
0
10
74.8038
20
162.5121
30
0.0
0
VERTEX
8
0
10
74.7655
20
162.3195
30
0.0
0
VERTEX
8
0
10
74.7024
20
162.1337
30
0.0
0
VERTEX
8
0
10
74.6156
20
161.9576
30
0.0
0
VERTEX
8
0
10
74.5065
20
161.7944
30
0.0
0
VERTEX
8
0
10
74.3771
20
161.6468
30
0.0
0
VERTEX
8
0
10
74.2295
20
161.5174
30
0.0
0
VERTEX
8
0
10
74.0663
20
161.4083
30
0.0
0
VERTEX
8
0
10
73.8903
20
161.3215
30
0.0
0
VERTEX
8
0
10
73.3160
20
161.1266
30
0.0
0
VERTEX
8
0
10
72.7417
20
161.3215
30
0.0
0
VERTEX
8
0
10
71.4522
20
161.9575
30
0.0
0
VERTEX
8
0
10
71.4522
20
147.6699
30
0.0
0
SEQEND
8
0
0
POLYLINE
8
0
66
1
10
0.0
20
0.0
30
0.0
70
1
0
VERTEX
8
0
10
55.0558
20
128.4019
30
0.0
0
VERTEX
8
0
10
71.4522
20
128.4019
30
0.0
0
VERTEX
8
0
10
71.4522
20
113.7019
30
0.0
0
VERTEX
8
0
10
55.0558
20
113.7019
30
0.0
0
SEQEND
8
0
0
POLYLINE
8
0
66
1
10
0.0
20
0.0
30
0.0
70
1
0
VERTEX
8
0
10
55.0558
20
130.7199
30
0.0
0
VERTEX
8
0
10
55.0558
20
145.4199
30
0.0
0
VERTEX
8
0
10
71.4522
20
145.4199
30
0.0
0
VERTEX
8
0
10
71.4522
20
130.7199
30
0.0
0
SEQEND
8
0
0
POLYLINE
8
0
66
1
10
0.0
20
0.0
30
0.0
70
1
0
VERTEX
8
0
10
37.0558
20
150.7539
30
0.0
0
VERTEX
8
0
10
53.4522
20
150.7539
30
0.0
0
VERTEX
8
0
10
53.4522
20
136.0539
30
0.0
0
VERTEX
8
0
10
37.0558
20
136.0539
30
0.0
0
SEQEND
8
0
0
POLYLINE
8
0
66
1
10
0.0
20
0.0
30
0.0
70
1
0
VERTEX
8
0
10
37.0558
20
119.0359
30
0.0
0
VERTEX
8
0
10
37.0558
20
133.7359
30
0.0
0
VERTEX
8
0
10
53.4522
20
133.7359
30
0.0
0
VERTEX
8
0
10
53.4522
20
119.0359
30
0.0
0
SEQEND
8
0
0
POLYLINE
8
0
66
1
10
0.0
20
0.0
30
0.0
70
1
0
VERTEX
8
0
10
16.6914
20
153.9974
30
0.0
0
VERTEX
8
0
10
16.8773
20
153.9343
30
0.0
0
VERTEX
8
0
10
17.0533
20
153.8475
30
0.0
0
VERTEX
8
0
10
17.2165
20
153.7385
30
0.0
0
VERTEX
8
0
10
17.3641
20
153.6090
30
0.0
0
VERTEX
8
0
10
17.4935
20
153.4615
30
0.0
0
VERTEX
8
0
10
17.6026
20
153.2983
30
0.0
0
VERTEX
8
0
10
17.9726
20
152.5479
30
0.0
0
VERTEX
8
0
10
17.6026
20
151.7976
30
0.0
0
VERTEX
8
0
10
17.4935
20
151.6344
30
0.0
0
VERTEX
8
0
10
17.3641
20
151.4868
30
0.0
0
VERTEX
8
0
10
17.2165
20
151.3574
30
0.0
0
VERTEX
8
0
10
17.0533
20
151.2483
30
0.0
0
VERTEX
8
0
10
16.8773
20
151.1615
30
0.0
0
VERTEX
8
0
10
16.6914
20
151.0984
30
0.0
0
VERTEX
8
0
10
16.4989
20
151.0601
30
0.0
0
VERTEX
8
0
10
16.3229
20
151.0486
30
0.0
0
VERTEX
8
0
10
16.3030
20
151.0473
30
0.0
0
VERTEX
8
0
10
16.1071
20
151.0601
30
0.0
0
VERTEX
8
0
10
15.9146
20
151.0984
30
0.0
0
VERTEX
8
0
10
15.7287
20
151.1615
30
0.0
0
VERTEX
8
0
10
15.5527
20
151.2483
30
0.0
0
VERTEX
8
0
10
15.4060
20
151.3463
30
0.0
0
VERTEX
8
0
10
15.3895
20
151.3574
30
0.0
0
VERTEX
8
0
10
15.2419
20
151.4868
30
0.0
0
VERTEX
8
0
10
15.1125
20
151.6344
30
0.0
0
VERTEX
8
0
10
15.0034
20
151.7976
30
0.0
0
VERTEX
8
0
10
14.9166
20
151.9737
30
0.0
0
VERTEX
8
0
10
14.8535
20
152.1595
30
0.0
0
VERTEX
8
0
10
14.8152
20
152.3521
30
0.0
0
VERTEX
8
0
10
14.8024
20
152.5479
30
0.0
0
VERTEX
8
0
10
14.8152
20
152.7438
30
0.0
0
VERTEX
8
0
10
14.8535
20
152.9363
30
0.0
0
VERTEX
8
0
10
14.9166
20
153.1222
30
0.0
0
VERTEX
8
0
10
15.0034
20
153.2983
30
0.0
0
VERTEX
8
0
10
15.1125
20
153.4615
30
0.0
0
VERTEX
8
0
10
15.2419
20
153.6090
30
0.0
0
VERTEX
8
0
10
15.3895
20
153.7385
30
0.0
0
VERTEX
8
0
10
15.5527
20
153.8475
30
0.0
0
VERTEX
8
0
10
15.7287
20
153.9343
30
0.0
0
VERTEX
8
0
10
15.9146
20
153.9974
30
0.0
0
VERTEX
8
0
10
16.1071
20
154.0357
30
0.0
0
VERTEX
8
0
10
16.3030
20
154.0486
30
0.0
0
VERTEX
8
0
10
16.4989
20
154.0357
30
0.0
0
SEQEND
8
0
0
POLYLINE
8
0
66
1
10
0.0
20
0.0
30
0.0
70
1
0
VERTEX
8
0
10
19.0558
20
160.8699
30
0.0
0
VERTEX
8
0
10
35.4522
20
160.8699
30
0.0
0
VERTEX
8
0
10
35.4522
20
146.1699
30
0.0
0
VERTEX
8
0
10
19.0558
20
146.1699
30
0.0
0
SEQEND
8
0
0
POLYLINE
8
0
66
1
10
0.0
20
0.0
30
0.0
70
1
0
VERTEX
8
0
10
19.0558
20
126.8779
30
0.0
0
VERTEX
8
0
10
35.4522
20
126.8779
30
0.0
0
VERTEX
8
0
10
35.4522
20
112.1779
30
0.0
0
VERTEX
8
0
10
19.0558
20
112.1779
30
0.0
0
SEQEND
8
0
0
POLYLINE
8
0
66
1
10
0.0
20
0.0
30
0.0
70
1
0
VERTEX
8
0
10
19.0558
20
129.1959
30
0.0
0
VERTEX
8
0
10
19.0558
20
143.8959
30
0.0
0
VERTEX
8
0
10
35.4522
20
143.8959
30
0.0
0
VERTEX
8
0
10
35.4522
20
129.1959
30
0.0
0
SEQEND
8
0
0
POLYLINE
8
0
66
1
10
0.0
20
0.0
30
0.0
70
1
0
VERTEX
8
0
10
92.4890
20
100.9000
30
0.0
0
VERTEX
8
0
10
102.1939
20
95.2968
30
0.0
0
VERTEX
8
0
10
105.3603
20
100.8999
30
0.0
0
VERTEX
8
0
10
102.0961
20
100.8999
30
0.0
0
VERTEX
8
0
10
102.4955
20
99.7233
30
0.0
0
VERTEX
8
0
10
102.5338
20
99.5308
30
0.0
0
VERTEX
8
0
10
102.5466
20
99.3349
30
0.0
0
VERTEX
8
0
10
102.5338
20
99.1391
30
0.0
0
VERTEX
8
0
10
102.4955
20
98.9465
30
0.0
0
VERTEX
8
0
10
102.4324
20
98.7607
30
0.0
0
VERTEX
8
0
10
102.3456
20
98.5846
30
0.0
0
VERTEX
8
0
10
102.2365
20
98.4214
30
0.0
0
VERTEX
8
0
10
102.1071
20
98.2738
30
0.0
0
VERTEX
8
0
10
101.9595
20
98.1444
30
0.0
0
VERTEX
8
0
10
101.8129
20
98.0464
30
0.0
0
VERTEX
8
0
10
101.7963
20
98.0353
30
0.0
0
VERTEX
8
0
10
101.6203
20
97.9485
30
0.0
0
VERTEX
8
0
10
101.4344
20
97.8854
30
0.0
0
VERTEX
8
0
10
101.2419
20
97.8471
30
0.0
0
VERTEX
8
0
10
101.0460
20
97.8343
30
0.0
0
VERTEX
8
0
10
100.8501
20
97.8471
30
0.0
0
VERTEX
8
0
10
100.2553
20
97.9654
30
0.0
0
VERTEX
8
0
10
99.8555
20
98.4214
30
0.0
0
VERTEX
8
0
10
99.7464
20
98.5846
30
0.0
0
VERTEX
8
0
10
99.6596
20
98.7607
30
0.0
0
VERTEX
8
0
10
99.5965
20
98.9465
30
0.0
0
VERTEX
8
0
10
99.5582
20
99.1391
30
0.0
0
VERTEX
8
0
10
99.5454
20
99.3349
30
0.0
0
VERTEX
8
0
10
99.5582
20
99.5308
30
0.0
0
VERTEX
8
0
10
99.5965
20
99.7233
30
0.0
0
VERTEX
8
0
10
99.9958
20
100.8997
30
0.0
0
SEQEND
8
0
0
POLYLINE
8
0
66
1
10
0.0
20
0.0
30
0.0
70
1
0
VERTEX
8
0
10
15.7082
20
36.3801
30
0.0
0
VERTEX
8
0
10
32.3664
20
36.3801
30
0.0
0
VERTEX
8
0
10
32.3664
20
21.6801
30
0.0
0
VERTEX
8
0
10
15.7085
20
21.6801
30
0.0
0
VERTEX
8
0
10
15.7083
20
18.7951
30
0.0
0
VERTEX
8
0
10
15.8052
20
18.7951
30
0.0
0
VERTEX
8
0
10
15.8052
20
13.5330
30
0.0
0
VERTEX
8
0
10
15.8513
20
13.3611
30
0.0
0
VERTEX
8
0
10
16.1990
20
13.2679
30
0.0
0
VERTEX
8
0
10
17.1251
20
13.8025
30
0.0
0
VERTEX
8
0
10
25.0939
20
0.0000
30
0.0
0
VERTEX
8
0
10
25.7534
20
0.2522
30
0.0
0
VERTEX
8
0
10
25.9903
20
0.3420
30
0.0
0
VERTEX
8
0
10
26.2275
20
0.4311
30
0.0
0
VERTEX
8
0
10
26.4649
20
0.5195
30
0.0
0
VERTEX
8
0
10
26.7025
20
0.6072
30
0.0
0
VERTEX
8
0
10
26.9405
20
0.6943
30
0.0
0
VERTEX
8
0
10
27.1787
20
0.7806
30
0.0
0
VERTEX
8
0
10
27.4171
20
0.8662
30
0.0
0
VERTEX
8
0
10
31.0893
20
2.1729
30
0.0
0
VERTEX
8
0
10
30.7323
20
3.3194
30
0.0
0
VERTEX
8
0
10
26.2437
20
2.1167
30
0.0
0
VERTEX
8
0
10
22.4391
20
16.3158
30
0.0
0
VERTEX
8
0
10
38.2768
20
20.5595
30
0.0
0
VERTEX
8
0
10
42.0814
20
6.3604
30
0.0
0
VERTEX
8
0
10
34.6953
20
4.3813
30
0.0
0
VERTEX
8
0
10
34.9849
20
3.1479
30
0.0
0
VERTEX
8
0
10
38.8686
20
3.9330
30
0.0
0
VERTEX
8
0
10
39.3606
20
4.0319
30
0.0
0
VERTEX
8
0
10
39.6066
20
4.0810
30
0.0
0
VERTEX
8
0
10
39.8526
20
4.1300
30
0.0
0
VERTEX
8
0
10
40.3449
20
4.2273
30
0.0
0
VERTEX
8
0
10
40.5910
20
4.2757
30
0.0
0
VERTEX
8
0
10
41.0835
20
4.3719
30
0.0
0
VERTEX
8
0
10
41.3298
20
4.4197
30
0.0
0
VERTEX
8
0
10
41.8225
20
4.5147
30
0.0
0
VERTEX
8
0
10
42.3153
20
4.6090
30
0.0
0
VERTEX
8
0
10
42.8082
20
4.7025
30
0.0
0
VERTEX
8
0
10
43.0548
20
4.7490
30
0.0
0
VERTEX
8
0
10
43.3014
20
4.7953
30
0.0
0
VERTEX
8
0
10
43.7946
20
4.8873
30
0.0
0
VERTEX
8
0
10
44.2880
20
4.9785
30
0.0
0
VERTEX
8
0
10
44.5348
20
5.0238
30
0.0
0
VERTEX
8
0
10
45.0284
20
5.1139
30
0.0
0
VERTEX
8
0
10
45.2752
20
5.1587
30
0.0
0
VERTEX
8
0
10
45.5221
20
5.2032
30
0.0
0
VERTEX
8
0
10
46.0160
20
5.2918
30
0.0
0
VERTEX
8
0
10
46.5100
20
5.3796
30
0.0
0
VERTEX
8
0
10
47.0042
20
5.4666
30
0.0
0
VERTEX
8
0
10
47.4985
20
5.5529
30
0.0
0
VERTEX
8
0
10
47.7457
20
5.5957
30
0.0
0
VERTEX
8
0
10
47.9929
20
5.6384
30
0.0
0
VERTEX
8
0
10
48.4875
20
5.7231
30
0.0
0
VERTEX
8
0
10
48.9821
20
5.8071
30
0.0
0
VERTEX
8
0
10
49.2295
20
5.8488
30
0.0
0
VERTEX
8
0
10
49.7244
20
5.9316
30
0.0
0
VERTEX
8
0
10
49.9719
20
5.9727
30
0.0
0
VERTEX
8
0
10
50.4670
20
6.0544
30
0.0
0
VERTEX
8
0
10
50.9622
20
6.1353
30
0.0
0
VERTEX
8
0
10
51.2098
20
6.1754
30
0.0
0
VERTEX
8
0
10
51.7052
20
6.2552
30
0.0
0
VERTEX
8
0
10
52.2007
20
6.3342
30
0.0
0
VERTEX
8
0
10
52.4485
20
6.3734
30
0.0
0
VERTEX
8
0
10
52.6963
20
6.4124
30
0.0
0
VERTEX
8
0
10
53.1921
20
6.4898
30
0.0
0
VERTEX
8
0
10
53.6879
20
6.5665
30
0.0
0
VERTEX
8
0
10
54.1839
20
6.6424
30
0.0
0
VERTEX
8
0
10
54.6800
20
6.7176
30
0.0
0
VERTEX
8
0
10
54.9281
20
6.7549
30
0.0
0
VERTEX
8
0
10
55.4244
20
6.8289
30
0.0
0
VERTEX
8
0
10
55.6726
20
6.8656
30
0.0
0
VERTEX
8
0
10
56.1690
20
6.9384
30
0.0
0
VERTEX
8
0
10
56.4173
20
6.9746
30
0.0
0
VERTEX
8
0
10
56.9139
20
7.0462
30
0.0
0
VERTEX
8
0
10
57.4106
20
7.1172
30
0.0
0
VERTEX
8
0
10
57.6590
20
7.1523
30
0.0
0
VERTEX
8
0
10
58.1559
20
7.2221
30
0.0
0
VERTEX
8
0
10
58.4044
20
7.2567
30
0.0
0
VERTEX
8
0
10
58.9014
20
7.3253
30
0.0
0
VERTEX
8
0
10
59.1500
20
7.3594
30
0.0
0
VERTEX
8
0
10
59.6472
20
7.4268
30
0.0
0
VERTEX
8
0
10
60.1445
20
7.4935
30
0.0
0
VERTEX
8
0
10
60.6419
20
7.5594
30
0.0
0
VERTEX
8
0
10
61.1394
20
7.6246
30
0.0
0
VERTEX
8
0
10
61.3882
20
7.6569
30
0.0
0
VERTEX
8
0
10
61.8859
20
7.7209
30
0.0
0
VERTEX
8
0
10
62.3837
20
7.7841
30
0.0
0
VERTEX
8
0
10
62.6326
20
7.8154
30
0.0
0
VERTEX
8
0
10
63.1305
20
7.8775
30
0.0
0
VERTEX
8
0
10
63.6285
20
7.9388
30
0.0
0
VERTEX
8
0
10
63.8775
20
7.9692
30
0.0
0
VERTEX
8
0
10
64.1266
20
7.9993
30
0.0
0
VERTEX
8
0
10
64.6248
20
8.0591
30
0.0
0
VERTEX
8
0
10
65.1230
20
8.1181
30
0.0
0
VERTEX
8
0
10
65.6214
20
8.1763
30
0.0
0
VERTEX
8
0
10
66.1199
20
8.2338
30
0.0
0
VERTEX
8
0
10
66.3691
20
8.2622
30
0.0
0
VERTEX
8
0
10
66.8677
20
8.3185
30
0.0
0
VERTEX
8
0
10
67.3664
20
8.3740
30
0.0
0
VERTEX
8
0
10
67.8652
20
8.4288
30
0.0
0
VERTEX
8
0
10
68.1146
20
8.4559
30
0.0
0
VERTEX
8
0
10
68.3640
20
8.4827
30
0.0
0
VERTEX
8
0
10
68.8630
20
8.5359
30
0.0
0
VERTEX
8
0
10
69.1125
20
8.5623
30
0.0
0
VERTEX
8
0
10
69.6115
20
8.6143
30
0.0
0
VERTEX
8
0
10
70.1106
20
8.6656
30
0.0
0
VERTEX
8
0
10
70.6099
20
8.7161
30
0.0
0
VERTEX
8
0
10
71.1091
20
8.7658
30
0.0
0
VERTEX
8
0
10
71.3588
20
8.7904
30
0.0
0
VERTEX
8
0
10
71.6085
20
8.8148
30
0.0
0
VERTEX
8
0
10
72.1080
20
8.8630
30
0.0
0
VERTEX
8
0
10
72.6075
20
8.9104
30
0.0
0
VERTEX
8
0
10
72.8573
20
8.9338
30
0.0
0
VERTEX
8
0
10
73.1071
20
8.9570
30
0.0
0
VERTEX
8
0
10
73.6067
20
9.0029
30
0.0
0
VERTEX
8
0
10
74.1065
20
9.0480
30
0.0
0
VERTEX
8
0
10
74.6063
20
9.0923
30
0.0
0
VERTEX
8
0
10
74.8562
20
9.1141
30
0.0
0
VERTEX
8
0
10
75.3561
20
9.1573
30
0.0
0
VERTEX
8
0
10
75.8560
20
9.1997
30
0.0
0
VERTEX
8
0
10
76.1061
20
9.2206
30
0.0
0
VERTEX
8
0
10
76.6061
20
9.2618
30
0.0
0
VERTEX
8
0
10
77.1062
20
9.3023
30
0.0
0
VERTEX
8
0
10
77.3563
20
9.3222
30
0.0
0
VERTEX
8
0
10
77.8566
20
9.3615
30
0.0
0
VERTEX
8
0
10
78.3568
20
9.4000
30
0.0
0
VERTEX
8
0
10
78.8572
20
9.4377
30
0.0
0
VERTEX
8
0
10
79.3576
20
9.4747
30
0.0
0
VERTEX
8
0
10
79.6078
20
9.4929
30
0.0
0
VERTEX
8
0
10
80.1083
20
9.5287
30
0.0
0
VERTEX
8
0
10
80.6088
20
9.5637
30
0.0
0
VERTEX
8
0
10
80.8591
20
9.5810
30
0.0
0
VERTEX
8
0
10
81.3597
20
9.6148
30
0.0
0
VERTEX
8
0
10
81.8604
20
9.6479
30
0.0
0
VERTEX
8
0
10
82.3611
20
9.6802
30
0.0
0
VERTEX
8
0
10
82.8619
20
9.7118
30
0.0
0
VERTEX
8
0
10
83.1123
20
9.7273
30
0.0
0
VERTEX
8
0
10
83.3627
20
9.7425
30
0.0
0
VERTEX
8
0
10
83.8636
20
9.7725
30
0.0
0
VERTEX
8
0
10
84.3645
20
9.8018
30
0.0
0
VERTEX
8
0
10
84.6149
20
9.8161
30
0.0
0
VERTEX
8
0
10
84.8654
20
9.8302
30
0.0
0
VERTEX
8
0
10
85.3664
20
9.8579
30
0.0
0
VERTEX
8
0
10
85.6169
20
9.8714
30
0.0
0
VERTEX
8
0
10
86.1180
20
9.8979
30
0.0
0
VERTEX
8
0
10
86.3685
20
9.9109
30
0.0
0
VERTEX
8
0
10
86.8697
20
9.9362
30
0.0
0
VERTEX
8
0
10
87.1202
20
9.9486
30
0.0
0
VERTEX
8
0
10
88.0161
20
9.9922
30
0.0
0
VERTEX
8
0
10
88.0161
20
25.3881
30
0.0
0
VERTEX
8
0
10
105.4842
20
25.3881
30
0.0
0
VERTEX
8
0
10
105.4842
20
27.6881
30
0.0
0
VERTEX
8
0
10
88.0161
20
27.6881
30
0.0
0
VERTEX
8
0
10
88.0161
20
42.3881
30
0.0
0
VERTEX
8
0
10
104.1422
20
42.3881
30
0.0
0
VERTEX
8
0
10
104.1422
20
44.6881
30
0.0
0
VERTEX
8
0
10
88.0161
20
44.6881
30
0.0
0
VERTEX
8
0
10
88.0161
20
59.3881
30
0.0
0
VERTEX
8
0
10
104.1850
20
59.3881
30
0.0
0
VERTEX
8
0
10
104.1959
20
61.0910
30
0.0
0
VERTEX
8
0
10
104.1330
20
61.2694
30
0.0
0
VERTEX
8
0
10
104.0425
20
61.4833
30
0.0
0
VERTEX
8
0
10
103.9389
20
61.6911
30
0.0
0
VERTEX
8
0
10
103.8228
20
61.8922
30
0.0
0
VERTEX
8
0
10
103.6944
20
62.0857
30
0.0
0
VERTEX
8
0
10
103.5544
20
62.2709
30
0.0
0
VERTEX
8
0
10
103.4032
20
62.4471
30
0.0
0
VERTEX
8
0
10
103.2414
20
62.6137
30
0.0
0
VERTEX
8
0
10
103.0697
20
62.7700
30
0.0
0
VERTEX
8
0
10
102.8773
20
62.9245
30
0.0
0
VERTEX
8
0
10
102.6843
20
63.0909
30
0.0
0
VERTEX
8
0
10
102.4951
20
63.2528
30
0.0
0
VERTEX
8
0
10
102.3053
20
63.4140
30
0.0
0
VERTEX
8
0
10
102.1149
20
63.5746
30
0.0
0
VERTEX
8
0
10
101.9239
20
63.7344
30
0.0
0
VERTEX
8
0
10
101.7324
20
63.8936
30
0.0
0
VERTEX
8
0
10
101.5403
20
64.0521
30
0.0
0
VERTEX
8
0
10
101.3476
20
64.2098
30
0.0
0
VERTEX
8
0
10
101.1543
20
64.3669
30
0.0
0
VERTEX
8
0
10
100.9604
20
64.5232
30
0.0
0
VERTEX
8
0
10
100.7660
20
64.6789
30
0.0
0
VERTEX
8
0
10
100.5711
20
64.8338
30
0.0
0
VERTEX
8
0
10
100.3755
20
64.9880
30
0.0
0
VERTEX
8
0
10
100.1794
20
65.1416
30
0.0
0
VERTEX
8
0
10
99.9828
20
65.2944
30
0.0
0
VERTEX
8
0
10
99.7855
20
65.4464
30
0.0
0
VERTEX
8
0
10
99.5878
20
65.5978
30
0.0
0
VERTEX
8
0
10
99.3895
20
65.7485
30
0.0
0
VERTEX
8
0
10
99.1906
20
65.8984
30
0.0
0
VERTEX
8
0
10
98.9912
20
66.0476
30
0.0
0
VERTEX
8
0
10
98.7912
20
66.1960
30
0.0
0
VERTEX
8
0
10
98.5908
20
66.3438
30
0.0
0
VERTEX
8
0
10
98.3897
20
66.4908
30
0.0
0
VERTEX
8
0
10
98.1882
20
66.6371
30
0.0
0
VERTEX
8
0
10
97.9861
20
66.7826
30
0.0
0
VERTEX
8
0
10
97.7835
20
66.9274
30
0.0
0
VERTEX
8
0
10
97.5803
20
67.0715
30
0.0
0
VERTEX
8
0
10
97.3767
20
67.2148
30
0.0
0
VERTEX
8
0
10
97.1725
20
67.3574
30
0.0
0
VERTEX
8
0
10
96.9678
20
67.4993
30
0.0
0
VERTEX
8
0
10
96.7626
20
67.6404
30
0.0
0
VERTEX
8
0
10
96.5568
20
67.7807
30
0.0
0
VERTEX
8
0
10
96.3506
20
67.9203
30
0.0
0
VERTEX
8
0
10
96.1438
20
68.0592
30
0.0
0
VERTEX
8
0
10
95.9366
20
68.1972
30
0.0
0
VERTEX
8
0
10
95.7288
20
68.3346
30
0.0
0
VERTEX
8
0
10
95.5206
20
68.4712
30
0.0
0
VERTEX
8
0
10
95.3118
20
68.6070
30
0.0
0
VERTEX
8
0
10
95.1026
20
68.7421
30
0.0
0
VERTEX
8
0
10
94.8929
20
68.8764
30
0.0
0
VERTEX
8
0
10
94.6827
20
69.0099
30
0.0
0
VERTEX
8
0
10
94.4720
20
69.1427
30
0.0
0
VERTEX
8
0
10
94.2608
20
69.2747
30
0.0
0
VERTEX
8
0
10
94.0491
20
69.4059
30
0.0
0
VERTEX
8
0
10
93.8370
20
69.5364
30
0.0
0
VERTEX
8
0
10
93.6244
20
69.6661
30
0.0
0
VERTEX
8
0
10
93.4113
20
69.7950
30
0.0
0
VERTEX
8
0
10
93.1977
20
69.9231
30
0.0
0
VERTEX
8
0
10
92.9837
20
70.0505
30
0.0
0
VERTEX
8
0
10
92.7693
20
70.1770
30
0.0
0
VERTEX
8
0
10
92.5543
20
70.3028
30
0.0
0
VERTEX
8
0
10
92.3389
20
70.4279
30
0.0
0
VERTEX
8
0
10
92.1231
20
70.5521
30
0.0
0
VERTEX
8
0
10
91.9068
20
70.6755
30
0.0
0
VERTEX
8
0
10
91.6900
20
70.7982
30
0.0
0
VERTEX
8
0
10
91.4729
20
70.9201
30
0.0
0
VERTEX
8
0
10
91.2552
20
71.0411
30
0.0
0
VERTEX
8
0
10
91.0372
20
71.1614
30
0.0
0
VERTEX
8
0
10
90.8186
20
71.2809
30
0.0
0
VERTEX
8
0
10
90.5997
20
71.3996
30
0.0
0
VERTEX
8
0
10
90.3803
20
71.5175
30
0.0
0
VERTEX
8
0
10
90.1605
20
71.6346
30
0.0
0
VERTEX
8
0
10
89.9403
20
71.7509
30
0.0
0
VERTEX
8
0
10
89.7197
20
71.8664
30
0.0
0
VERTEX
8
0
10
89.4986
20
71.9811
30
0.0
0
VERTEX
8
0
10
89.2771
20
72.0950
30
0.0
0
VERTEX
8
0
10
89.0552
20
72.2080
30
0.0
0
VERTEX
8
0
10
88.8329
20
72.3203
30
0.0
0
VERTEX
8
0
10
88.6102
20
72.4318
30
0.0
0
VERTEX
8
0
10
88.3871
20
72.5424
30
0.0
0
VERTEX
8
0
10
88.1636
20
72.6522
30
0.0
0
VERTEX
8
0
10
87.9397
20
72.7613
30
0.0
0
VERTEX
8
0
10
87.7154
20
72.8695
30
0.0
0
VERTEX
8
0
10
87.4907
20
72.9769
30
0.0
0
VERTEX
8
0
10
87.2656
20
73.0834
30
0.0
0
VERTEX
8
0
10
87.0401
20
73.1892
30
0.0
0
VERTEX
8
0
10
86.8142
20
73.2941
30
0.0
0
VERTEX
8
0
10
86.5880
20
73.3982
30
0.0
0
VERTEX
8
0
10
86.3614
20
73.5015
30
0.0
0
VERTEX
8
0
10
86.1344
20
73.6040
30
0.0
0
VERTEX
8
0
10
85.9070
20
73.7056
30
0.0
0
VERTEX
8
0
10
85.6793
20
73.8064
30
0.0
0
VERTEX
8
0
10
85.4512
20
73.9064
30
0.0
0
VERTEX
8
0
10
85.2227
20
74.0055
30
0.0
0
VERTEX
8
0
10
84.9939
20
74.1038
30
0.0
0
VERTEX
8
0
10
84.7647
20
74.2013
30
0.0
0
VERTEX
8
0
10
84.5352
20
74.2979
30
0.0
0
VERTEX
8
0
10
84.3053
20
74.3937
30
0.0
0
VERTEX
8
0
10
84.0751
20
74.4887
30
0.0
0
VERTEX
8
0
10
83.8445
20
74.5828
30
0.0
0
VERTEX
8
0
10
83.6136
20
74.6761
30
0.0
0
VERTEX
8
0
10
83.3824
20
74.7686
30
0.0
0
VERTEX
8
0
10
83.1508
20
74.8602
30
0.0
0
VERTEX
8
0
10
82.9189
20
74.9509
30
0.0
0
VERTEX
8
0
10
82.6866
20
75.0408
30
0.0
0
VERTEX
8
0
10
82.4541
20
75.1299
30
0.0
0
VERTEX
8
0
10
82.2212
20
75.2181
30
0.0
0
VERTEX
8
0
10
81.9880
20
75.3055
30
0.0
0
VERTEX
8
0
10
81.7544
20
75.3921
30
0.0
0
VERTEX
8
0
10
81.5206
20
75.4777
30
0.0
0
VERTEX
8
0
10
81.2864
20
75.5626
30
0.0
0
VERTEX
8
0
10
81.0520
20
75.6465
30
0.0
0
VERTEX
8
0
10
80.8172
20
75.7296
30
0.0
0
VERTEX
8
0
10
80.5822
20
75.8119
30
0.0
0
VERTEX
8
0
10
80.3468
20
75.8933
30
0.0
0
VERTEX
8
0
10
80.1111
20
75.9739
30
0.0
0
VERTEX
8
0
10
79.8752
20
76.0536
30
0.0
0
VERTEX
8
0
10
79.6390
20
76.1324
30
0.0
0
VERTEX
8
0
10
79.4024
20
76.2104
30
0.0
0
VERTEX
8
0
10
79.1656
20
76.2875
30
0.0
0
VERTEX
8
0
10
78.9285
20
76.3637
30
0.0
0
VERTEX
8
0
10
78.6912
20
76.4391
30
0.0
0
VERTEX
8
0
10
78.4536
20
76.5136
30
0.0
0
VERTEX
8
0
10
78.2157
20
76.5873
30
0.0
0
VERTEX
8
0
10
77.9775
20
76.6601
30
0.0
0
VERTEX
8
0
10
77.7391
20
76.7320
30
0.0
0
VERTEX
8
0
10
77.5004
20
76.8031
30
0.0
0
VERTEX
8
0
10
77.2614
20
76.8733
30
0.0
0
VERTEX
8
0
10
77.0222
20
76.9426
30
0.0
0
VERTEX
8
0
10
76.7828
20
77.0110
30
0.0
0
VERTEX
8
0
10
76.5431
20
77.0786
30
0.0
0
VERTEX
8
0
10
76.3031
20
77.1453
30
0.0
0
VERTEX
8
0
10
76.0629
20
77.2111
30
0.0
0
VERTEX
8
0
10
75.8225
20
77.2761
30
0.0
0
VERTEX
8
0
10
75.5818
20
77.3401
30
0.0
0
VERTEX
8
0
10
75.3409
20
77.4033
30
0.0
0
VERTEX
8
0
10
75.0998
20
77.4657
30
0.0
0
VERTEX
8
0
10
74.8585
20
77.5271
30
0.0
0
VERTEX
8
0
10
74.6169
20
77.5877
30
0.0
0
VERTEX
8
0
10
74.3751
20
77.6474
30
0.0
0
VERTEX
8
0
10
74.1331
20
77.7062
30
0.0
0
VERTEX
8
0
10
73.8909
20
77.7641
30
0.0
0
VERTEX
8
0
10
73.6485
20
77.8211
30
0.0
0
VERTEX
8
0
10
73.4059
20
77.8773
30
0.0
0
VERTEX
8
0
10
73.1630
20
77.9326
30
0.0
0
VERTEX
8
0
10
72.9200
20
77.9870
30
0.0
0
VERTEX
8
0
10
72.6768
20
78.0405
30
0.0
0
VERTEX
8
0
10
72.4334
20
78.0931
30
0.0
0
VERTEX
8
0
10
72.1897
20
78.1448
30
0.0
0
VERTEX
8
0
10
71.9459
20
78.1957
30
0.0
0
VERTEX
8
0
10
71.7020
20
78.2456
30
0.0
0
VERTEX
8
0
10
71.4578
20
78.2947
30
0.0
0
VERTEX
8
0
10
71.2135
20
78.3429
30
0.0
0
VERTEX
8
0
10
70.9690
20
78.3902
30
0.0
0
VERTEX
8
0
10
70.7243
20
78.4366
30
0.0
0
VERTEX
8
0
10
70.4794
20
78.4821
30
0.0
0
VERTEX
8
0
10
70.2344
20
78.5267
30
0.0
0
VERTEX
8
0
10
69.9892
20
78.5705
30
0.0
0
VERTEX
8
0
10
69.7439
20
78.6133
30
0.0
0
VERTEX
8
0
10
69.4984
20
78.6553
30
0.0
0
VERTEX
8
0
10
69.2528
20
78.6963
30
0.0
0
VERTEX
8
0
10
69.0070
20
78.7365
30
0.0
0
VERTEX
8
0
10
68.7611
20
78.7757
30
0.0
0
VERTEX
8
0
10
68.5150
20
78.8141
30
0.0
0
VERTEX
8
0
10
68.3684
20
78.8364
30
0.0
0
VERTEX
8
0
10
68.3684
20
63.6881
30
0.0
0
VERTEX
8
0
10
51.9721
20
63.6881
30
0.0
0
VERTEX
8
0
10
51.9721
20
79.4430
30
0.0
0
VERTEX
8
0
10
51.6828
20
79.4147
30
0.0
0
VERTEX
8
0
10
51.4345
20
79.3899
30
0.0
0
VERTEX
8
0
10
51.1863
20
79.3647
30
0.0
0
VERTEX
8
0
10
50.9381
20
79.3390
30
0.0
0
VERTEX
8
0
10
50.6899
20
79.3129
30
0.0
0
VERTEX
8
0
10
50.4418
20
79.2864
30
0.0
0
VERTEX
8
0
10
50.1937
20
79.2594
30
0.0
0
VERTEX
8
0
10
49.9457
20
79.2320
30
0.0
0
VERTEX
8
0
10
49.6977
20
79.2042
30
0.0
0
VERTEX
8
0
10
49.4498
20
79.1760
30
0.0
0
VERTEX
8
0
10
49.2019
20
79.1473
30
0.0
0
VERTEX
8
0
10
48.9541
20
79.1182
30
0.0
0
VERTEX
8
0
10
48.7063
20
79.0887
30
0.0
0
VERTEX
8
0
10
48.4586
20
79.0587
30
0.0
0
VERTEX
8
0
10
48.2109
20
79.0283
30
0.0
0
VERTEX
8
0
10
47.9633
20
78.9975
30
0.0
0
VERTEX
8
0
10
47.7157
20
78.9662
30
0.0
0
VERTEX
8
0
10
47.4682
20
78.9345
30
0.0
0
VERTEX
8
0
10
47.2207
20
78.9024
30
0.0
0
VERTEX
8
0
10
46.9733
20
78.8699
30
0.0
0
VERTEX
8
0
10
46.7260
20
78.8369
30
0.0
0
VERTEX
8
0
10
46.4787
20
78.8035
30
0.0
0
VERTEX
8
0
10
46.2315
20
78.7697
30
0.0
0
VERTEX
8
0
10
45.9843
20
78.7354
30
0.0
0
VERTEX
8
0
10
45.7372
20
78.7007
30
0.0
0
VERTEX
8
0
10
45.4901
20
78.6656
30
0.0
0
VERTEX
8
0
10
45.2431
20
78.6301
30
0.0
0
VERTEX
8
0
10
44.9962
20
78.5941
30
0.0
0
VERTEX
8
0
10
44.7494
20
78.5577
30
0.0
0
VERTEX
8
0
10
44.5026
20
78.5208
30
0.0
0
VERTEX
8
0
10
44.2558
20
78.4836
30
0.0
0
VERTEX
8
0
10
44.0092
20
78.4459
30
0.0
0
VERTEX
8
0
10
43.7625
20
78.4078
30
0.0
0
VERTEX
8
0
10
43.5160
20
78.3692
30
0.0
0
VERTEX
8
0
10
43.2695
20
78.3302
30
0.0
0
VERTEX
8
0
10
43.0231
20
78.2908
30
0.0
0
VERTEX
8
0
10
42.7768
20
78.2510
30
0.0
0
VERTEX
8
0
10
42.5305
20
78.2108
30
0.0
0
VERTEX
8
0
10
42.2843
20
78.1701
30
0.0
0
VERTEX
8
0
10
42.0382
20
78.1290
30
0.0
0
VERTEX
8
0
10
41.7922
20
78.0874
30
0.0
0
VERTEX
8
0
10
41.5462
20
78.0454
30
0.0
0
VERTEX
8
0
10
41.3003
20
78.0031
30
0.0
0
VERTEX
8
0
10
41.0545
20
77.9602
30
0.0
0
VERTEX
8
0
10
40.8087
20
77.9170
30
0.0
0
VERTEX
8
0
10
40.5630
20
77.8733
30
0.0
0
VERTEX
8
0
10
40.3174
20
77.8292
30
0.0
0
VERTEX
8
0
10
40.0719
20
77.7847
30
0.0
0
VERTEX
8
0
10
39.8264
20
77.7397
30
0.0
0
VERTEX
8
0
10
39.5811
20
77.6943
30
0.0
0
VERTEX
8
0
10
39.3358
20
77.6485
30
0.0
0
VERTEX
8
0
10
39.0906
20
77.6023
30
0.0
0
VERTEX
8
0
10
38.8454
20
77.5556
30
0.0
0
VERTEX
8
0
10
38.6004
20
77.5086
30
0.0
0
VERTEX
8
0
10
38.3554
20
77.4611
30
0.0
0
VERTEX
8
0
10
38.1105
20
77.4131
30
0.0
0
VERTEX
8
0
10
37.8657
20
77.3648
30
0.0
0
VERTEX
8
0
10
37.6210
20
77.3160
30
0.0
0
VERTEX
8
0
10
37.3764
20
77.2668
30
0.0
0
VERTEX
8
0
10
37.1318
20
77.2171
30
0.0
0
VERTEX
8
0
10
36.8874
20
77.1671
30
0.0
0
VERTEX
8
0
10
36.6430
20
77.1166
30
0.0
0
VERTEX
8
0
10
36.3987
20
77.0657
30
0.0
0
VERTEX
8
0
10
36.1545
20
77.0144
30
0.0
0
VERTEX
8
0
10
35.9104
20
76.9626
30
0.0
0
VERTEX
8
0
10
35.6664
20
76.9104
30
0.0
0
VERTEX
8
0
10
35.4224
20
76.8578
30
0.0
0
VERTEX
8
0
10
35.1786
20
76.8048
30
0.0
0
VERTEX
8
0
10
34.9349
20
76.7514
30
0.0
0
VERTEX
8
0
10
34.6912
20
76.6975
30
0.0
0
VERTEX
8
0
10
34.4477
20
76.6432
30
0.0
0
VERTEX
8
0
10
34.2042
20
76.5885
30
0.0
0
VERTEX
8
0
10
33.9608
20
76.5333
30
0.0
0
VERTEX
8
0
10
33.7176
20
76.4778
30
0.0
0
VERTEX
8
0
10
33.4744
20
76.4218
30
0.0
0
VERTEX
8
0
10
33.2313
20
76.3654
30
0.0
0
VERTEX
8
0
10
32.9884
20
76.3086
30
0.0
0
VERTEX
8
0
10
32.7455
20
76.2513
30
0.0
0
VERTEX
8
0
10
32.5027
20
76.1936
30
0.0
0
VERTEX
8
0
10
32.2600
20
76.1355
30
0.0
0
VERTEX
8
0
10
32.0174
20
76.0770
30
0.0
0
VERTEX
8
0
10
31.7750
20
76.0181
30
0.0
0
VERTEX
8
0
10
31.5326
20
75.9587
30
0.0
0
VERTEX
8
0
10
31.2903
20
75.8990
30
0.0
0
VERTEX
8
0
10
31.0482
20
75.8388
30
0.0
0
VERTEX
8
0
10
30.8061
20
75.7781
30
0.0
0
VERTEX
8
0
10
30.5642
20
75.7171
30
0.0
0
VERTEX
8
0
10
30.3223
20
75.6556
30
0.0
0
VERTEX
8
0
10
30.0806
20
75.5938
30
0.0
0
VERTEX
8
0
10
29.8389
20
75.5315
30
0.0
0
VERTEX
8
0
10
29.5974
20
75.4687
30
0.0
0
VERTEX
8
0
10
29.3560
20
75.4056
30
0.0
0
VERTEX
8
0
10
29.1351
20
75.3474
30
0.0
0
VERTEX
8
0
10
28.8735
20
75.2781
30
0.0
0
VERTEX
8
0
10
28.6324
20
75.2137
30
0.0
0
VERTEX
8
0
10
28.3915
20
75.1489
30
0.0
0
VERTEX
8
0
10
28.1506
20
75.0837
30
0.0
0
VERTEX
8
0
10
27.9099
20
75.0180
30
0.0
0
VERTEX
8
0
10
27.6692
20
74.9519
30
0.0
0
VERTEX
8
0
10
27.4287
20
74.8855
30
0.0
0
VERTEX
8
0
10
27.1883
20
74.8186
30
0.0
0
VERTEX
8
0
10
26.9480
20
74.7512
30
0.0
0
VERTEX
8
0
10
26.7079
20
74.6835
30
0.0
0
VERTEX
8
0
10
26.4678
20
74.6154
30
0.0
0
VERTEX
8
0
10
26.2279
20
74.5468
30
0.0
0
VERTEX
8
0
10
25.9881
20
74.4778
30
0.0
0
VERTEX
8
0
10
25.7484
20
74.4084
30
0.0
0
VERTEX
8
0
10
25.5088
20
74.3386
30
0.0
0
VERTEX
8
0
10
25.2694
20
74.2683
30
0.0
0
VERTEX
8
0
10
25.0301
20
74.1977
30
0.0
0
VERTEX
8
0
10
24.7909
20
74.1266
30
0.0
0
VERTEX
8
0
10
24.5518
20
74.0552
30
0.0
0
VERTEX
8
0
10
24.3128
20
73.9833
30
0.0
0
VERTEX
8
0
10
24.0740
20
73.9110
30
0.0
0
VERTEX
8
0
10
23.8353
20
73.8382
30
0.0
0
VERTEX
8
0
10
23.5967
20
73.7651
30
0.0
0
VERTEX
8
0
10
23.3583
20
73.6915
30
0.0
0
VERTEX
8
0
10
23.1200
20
73.6176
30
0.0
0
VERTEX
8
0
10
22.8818
20
73.5432
30
0.0
0
VERTEX
8
0
10
22.6437
20
73.4684
30
0.0
0
VERTEX
8
0
10
22.4058
20
73.3932
30
0.0
0
VERTEX
8
0
10
22.1680
20
73.3176
30
0.0
0
VERTEX
8
0
10
21.9303
20
73.2415
30
0.0
0
VERTEX
8
0
10
21.6928
20
73.1651
30
0.0
0
VERTEX
8
0
10
21.4554
20
73.0882
30
0.0
0
VERTEX
8
0
10
21.2181
20
73.0110
30
0.0
0
VERTEX
8
0
10
20.9810
20
72.9333
30
0.0
0
VERTEX
8
0
10
20.7440
20
72.8552
30
0.0
0
VERTEX
8
0
10
20.5071
20
72.7767
30
0.0
0
VERTEX
8
0
10
20.2704
20
72.6978
30
0.0
0
VERTEX
8
0
10
20.0338
20
72.6185
30
0.0
0
VERTEX
8
0
10
19.7974
20
72.5387
30
0.0
0
VERTEX
8
0
10
19.5610
20
72.4586
30
0.0
0
VERTEX
8
0
10
19.3249
20
72.3780
30
0.0
0
VERTEX
8
0
10
19.0888
20
72.2971
30
0.0
0
VERTEX
8
0
10
18.8529
20
72.2157
30
0.0
0
VERTEX
8
0
10
18.6172
20
72.1339
30
0.0
0
VERTEX
8
0
10
18.3816
20
72.0517
30
0.0
0
VERTEX
8
0
10
18.1461
20
71.9691
30
0.0
0
VERTEX
8
0
10
17.9108
20
71.8861
30
0.0
0
VERTEX
8
0
10
17.6756
20
71.8027
30
0.0
0
VERTEX
8
0
10
17.4406
20
71.7188
30
0.0
0
VERTEX
8
0
10
17.2057
20
71.6346
30
0.0
0
VERTEX
8
0
10
16.9710
20
71.5500
30
0.0
0
VERTEX
8
0
10
16.7364
20
71.4649
30
0.0
0
VERTEX
8
0
10
16.5337
20
71.3910
30
0.0
0
VERTEX
8
0
10
16.4201
20
71.3173
30
0.0
0
VERTEX
8
0
10
16.3375
20
71.2213
30
0.0
0
VERTEX
8
0
10
16.2852
20
71.1060
30
0.0
0
VERTEX
8
0
10
16.2642
20
70.9593
30
0.0
0
VERTEX
8
0
10
16.2642
20
70.3881
30
0.0
0
VERTEX
8
0
10
32.3664
20
70.3881
30
0.0
0
VERTEX
8
0
10
32.3664
20
55.6881
30
0.0
0
VERTEX
8
0
10
16.2642
20
55.6881
30
0.0
0
VERTEX
8
0
10
16.2642
20
53.3981
30
0.0
0
VERTEX
8
0
10
32.3664
20
53.3981
30
0.0
0
VERTEX
8
0
10
32.3664
20
38.6981
30
0.0
0
VERTEX
8
0
10
15.7082
20
38.6981
30
0.0
0
SEQEND
8
0
0
POLYLINE
8
0
66
1
10
0.0
20
0.0
30
0.0
70
1
0
VERTEX
8
0
10
32.1242
20
71.6447
30
0.0
0
VERTEX
8
0
10
31.5500
20
71.8397
30
0.0
0
VERTEX
8
0
10
31.3739
20
71.9265
30
0.0
0
VERTEX
8
0
10
31.2107
20
72.0356
30
0.0
0
VERTEX
8
0
10
31.0631
20
72.1650
30
0.0
0
VERTEX
8
0
10
30.9337
20
72.3126
30
0.0
0
VERTEX
8
0
10
30.8246
20
72.4758
30
0.0
0
VERTEX
8
0
10
30.7378
20
72.6518
30
0.0
0
VERTEX
8
0
10
30.6811
20
72.8188
30
0.0
0
VERTEX
8
0
10
30.6747
20
72.8377
30
0.0
0
VERTEX
8
0
10
30.6364
20
73.0302
30
0.0
0
VERTEX
8
0
10
30.6236
20
73.2261
30
0.0
0
VERTEX
8
0
10
30.6364
20
73.4220
30
0.0
0
VERTEX
8
0
10
30.6747
20
73.6145
30
0.0
0
VERTEX
8
0
10
30.7378
20
73.8004
30
0.0
0
VERTEX
8
0
10
30.8246
20
73.9764
30
0.0
0
VERTEX
8
0
10
30.9337
20
74.1396
30
0.0
0
VERTEX
8
0
10
31.0631
20
74.2872
30
0.0
0
VERTEX
8
0
10
31.6921
20
74.8388
30
0.0
0
VERTEX
8
0
10
32.5126
20
74.6756
30
0.0
0
VERTEX
8
0
10
32.6985
20
74.6125
30
0.0
0
VERTEX
8
0
10
32.8746
20
74.5257
30
0.0
0
VERTEX
8
0
10
33.0212
20
74.4277
30
0.0
0
VERTEX
8
0
10
33.0378
20
74.4166
30
0.0
0
VERTEX
8
0
10
33.1854
20
74.2872
30
0.0
0
VERTEX
8
0
10
33.3148
20
74.1396
30
0.0
0
VERTEX
8
0
10
33.4238
20
73.9764
30
0.0
0
VERTEX
8
0
10
33.5107
20
73.8004
30
0.0
0
VERTEX
8
0
10
33.5737
20
73.6145
30
0.0
0
VERTEX
8
0
10
33.7182
20
72.8881
30
0.0
0
VERTEX
8
0
10
50.3804
20
72.8881
30
0.0
0
VERTEX
8
0
10
50.3804
20
58.1881
30
0.0
0
VERTEX
8
0
10
33.9841
20
58.1881
30
0.0
0
VERTEX
8
0
10
33.9841
20
72.4736
30
0.0
0
VERTEX
8
0
10
32.6985
20
71.8397
30
0.0
0
SEQEND
8
0
0
POLYLINE
8
0
66
1
10
0.0
20
0.0
30
0.0
70
1
0
VERTEX
8
0
10
87.5829
20
19.0005
30
0.0
0
VERTEX
8
0
10
86.6524
20
17.9394
30
0.0
0
VERTEX
8
0
10
86.5198
20
17.8231
30
0.0
0
VERTEX
8
0
10
86.5048
20
17.8099
30
0.0
0
VERTEX
8
0
10
86.3416
20
17.7009
30
0.0
0
VERTEX
8
0
10
86.1655
20
17.6141
30
0.0
0
VERTEX
8
0
10
85.9796
20
17.5510
30
0.0
0
VERTEX
8
0
10
85.7871
20
17.5127
30
0.0
0
VERTEX
8
0
10
85.5912
20
17.4998
30
0.0
0
VERTEX
8
0
10
85.3954
20
17.5127
30
0.0
0
VERTEX
8
0
10
85.2028
20
17.5510
30
0.0
0
VERTEX
8
0
10
85.0170
20
17.6141
30
0.0
0
VERTEX
8
0
10
84.8409
20
17.7009
30
0.0
0
VERTEX
8
0
10
84.6777
20
17.8099
30
0.0
0
VERTEX
8
0
10
84.5301
20
17.9394
30
0.0
0
VERTEX
8
0
10
84.4007
20
18.0870
30
0.0
0
VERTEX
8
0
10
84.2916
20
18.2502
30
0.0
0
VERTEX
8
0
10
84.2048
20
18.4262
30
0.0
0
VERTEX
8
0
10
84.1417
20
18.6121
30
0.0
0
VERTEX
8
0
10
84.1034
20
18.8046
30
0.0
0
VERTEX
8
0
10
84.0906
20
19.0005
30
0.0
0
VERTEX
8
0
10
84.1034
20
19.1964
30
0.0
0
VERTEX
8
0
10
84.1417
20
19.3889
30
0.0
0
VERTEX
8
0
10
84.2048
20
19.5748
30
0.0
0
VERTEX
8
0
10
84.2916
20
19.7508
30
0.0
0
VERTEX
8
0
10
84.4007
20
19.9140
30
0.0
0
VERTEX
8
0
10
84.5301
20
20.0616
30
0.0
0
VERTEX
8
0
10
84.6777
20
20.1910
30
0.0
0
VERTEX
8
0
10
84.8409
20
20.3001
30
0.0
0
VERTEX
8
0
10
85.0170
20
20.3869
30
0.0
0
VERTEX
8
0
10
85.2028
20
20.4500
30
0.0
0
VERTEX
8
0
10
85.3954
20
20.4883
30
0.0
0
VERTEX
8
0
10
85.5912
20
20.5011
30
0.0
0
VERTEX
8
0
10
85.7672
20
20.4896
30
0.0
0
VERTEX
8
0
10
85.7871
20
20.4883
30
0.0
0
VERTEX
8
0
10
85.9796
20
20.4500
30
0.0
0
VERTEX
8
0
10
86.1655
20
20.3869
30
0.0
0
VERTEX
8
0
10
86.3416
20
20.3001
30
0.0
0
VERTEX
8
0
10
86.5048
20
20.1910
30
0.0
0
VERTEX
8
0
10
86.6524
20
20.0616
30
0.0
0
SEQEND
8
0
0
POLYLINE
8
0
66
1
10
0.0
20
0.0
30
0.0
70
1
0
VERTEX
8
0
10
69.9981
20
71.3881
30
0.0
0
VERTEX
8
0
10
86.3944
20
71.3881
30
0.0
0
VERTEX
8
0
10
86.3944
20
56.6881
30
0.0
0
VERTEX
8
0
10
69.9981
20
56.6881
30
0.0
0
SEQEND
8
0
0
POLYLINE
8
0
66
1
10
0.0
20
0.0
30
0.0
70
1
0
VERTEX
8
0
10
87.4776
20
63.0661
30
0.0
0
VERTEX
8
0
10
87.8476
20
63.8164
30
0.0
0
VERTEX
8
0
10
87.9456
20
63.9631
30
0.0
0
VERTEX
8
0
10
87.9567
20
63.9796
30
0.0
0
VERTEX
8
0
10
88.0861
20
64.1272
30
0.0
0
VERTEX
8
0
10
88.2337
20
64.2566
30
0.0
0
VERTEX
8
0
10
88.3969
20
64.3657
30
0.0
0
VERTEX
8
0
10
88.5730
20
64.4525
30
0.0
0
VERTEX
8
0
10
88.7588
20
64.5156
30
0.0
0
VERTEX
8
0
10
88.9514
20
64.5539
30
0.0
0
VERTEX
8
0
10
89.1472
20
64.5667
30
0.0
0
VERTEX
8
0
10
89.3431
20
64.5539
30
0.0
0
VERTEX
8
0
10
89.5356
20
64.5156
30
0.0
0
VERTEX
8
0
10
89.7215
20
64.4525
30
0.0
0
VERTEX
8
0
10
89.8976
20
64.3657
30
0.0
0
VERTEX
8
0
10
90.0608
20
64.2566
30
0.0
0
VERTEX
8
0
10
90.2084
20
64.1272
30
0.0
0
VERTEX
8
0
10
90.3378
20
63.9796
30
0.0
0
VERTEX
8
0
10
90.4358
20
63.8330
30
0.0
0
VERTEX
8
0
10
90.4468
20
63.8164
30
0.0
0
VERTEX
8
0
10
90.5337
20
63.6404
30
0.0
0
VERTEX
8
0
10
90.5967
20
63.4545
30
0.0
0
VERTEX
8
0
10
90.6350
20
63.2620
30
0.0
0
VERTEX
8
0
10
90.6479
20
63.0661
30
0.0
0
VERTEX
8
0
10
90.6350
20
62.8702
30
0.0
0
VERTEX
8
0
10
90.5967
20
62.6777
30
0.0
0
VERTEX
8
0
10
90.5337
20
62.4918
30
0.0
0
VERTEX
8
0
10
90.4468
20
62.3158
30
0.0
0
VERTEX
8
0
10
90.3378
20
62.1526
30
0.0
0
VERTEX
8
0
10
90.2084
20
62.0050
30
0.0
0
VERTEX
8
0
10
90.0608
20
61.8756
30
0.0
0
VERTEX
8
0
10
89.8976
20
61.7665
30
0.0
0
VERTEX
8
0
10
89.7215
20
61.6797
30
0.0
0
VERTEX
8
0
10
89.5356
20
61.6166
30
0.0
0
VERTEX
8
0
10
89.3627
20
61.5822
30
0.0
0
VERTEX
8
0
10
89.3431
20
61.5783
30
0.0
0
VERTEX
8
0
10
89.1472
20
61.5655
30
0.0
0
VERTEX
8
0
10
88.9514
20
61.5783
30
0.0
0
VERTEX
8
0
10
88.7784
20
61.6127
30
0.0
0
VERTEX
8
0
10
88.7588
20
61.6166
30
0.0
0
VERTEX
8
0
10
88.5730
20
61.6797
30
0.0
0
VERTEX
8
0
10
88.3969
20
61.7665
30
0.0
0
VERTEX
8
0
10
88.2337
20
61.8756
30
0.0
0
VERTEX
8
0
10
88.0861
20
62.0050
30
0.0
0
VERTEX
8
0
10
87.9567
20
62.1526
30
0.0
0
VERTEX
8
0
10
87.8476
20
62.3158
30
0.0
0
SEQEND
8
0
0
POLYLINE
8
0
66
1
10
0.0
20
0.0
30
0.0
70
1
0
VERTEX
8
0
10
69.9981
20
37.3961
30
0.0
0
VERTEX
8
0
10
86.3944
20
37.3961
30
0.0
0
VERTEX
8
0
10
86.3944
20
22.6961
30
0.0
0
VERTEX
8
0
10
69.9981
20
22.6961
30
0.0
0
SEQEND
8
0
0
POLYLINE
8
0
66
1
10
0.0
20
0.0
30
0.0
70
1
0
VERTEX
8
0
10
86.3944
20
39.7141
30
0.0
0
VERTEX
8
0
10
69.9981
20
39.7141
30
0.0
0
VERTEX
8
0
10
69.9981
20
54.4141
30
0.0
0
VERTEX
8
0
10
86.3944
20
54.4141
30
0.0
0
SEQEND
8
0
0
POLYLINE
8
0
66
1
10
0.0
20
0.0
30
0.0
70
1
0
VERTEX
8
0
10
51.9721
20
61.2721
30
0.0
0
VERTEX
8
0
10
68.3684
20
61.2721
30
0.0
0
VERTEX
8
0
10
68.3684
20
46.5721
30
0.0
0
VERTEX
8
0
10
51.9721
20
46.5721
30
0.0
0
SEQEND
8
0
0
POLYLINE
8
0
66
1
10
0.0
20
0.0
30
0.0
70
1
0
VERTEX
8
0
10
51.9721
20
29.5541
30
0.0
0
VERTEX
8
0
10
51.9721
20
44.2541
30
0.0
0
VERTEX
8
0
10
68.3684
20
44.2541
30
0.0
0
VERTEX
8
0
10
68.3684
20
29.5541
30
0.0
0
SEQEND
8
0
0
POLYLINE
8
0
66
1
10
0.0
20
0.0
30
0.0
70
1
0
VERTEX
8
0
10
33.9841
20
38.9201
30
0.0
0
VERTEX
8
0
10
50.3804
20
38.9201
30
0.0
0
VERTEX
8
0
10
50.3804
20
24.2201
30
0.0
0
VERTEX
8
0
10
33.9841
20
24.2201
30
0.0
0
SEQEND
8
0
0
POLYLINE
8
0
66
1
10
0.0
20
0.0
30
0.0
70
1
0
VERTEX
8
0
10
50.3804
20
41.2381
30
0.0
0
VERTEX
8
0
10
33.9841
20
41.2381
30
0.0
0
VERTEX
8
0
10
33.9841
20
55.9381
30
0.0
0
VERTEX
8
0
10
50.3804
20
55.9381
30
0.0
0
SEQEND
8
0
0
POLYLINE
8
0
66
1
10
0.0
20
0.0
30
0.0
70
1
0
VERTEX
8
0
10
0.0000
20
11.4180
30
0.0
0
VERTEX
8
0
10
3.1969
20
5.7610
30
0.0
0
VERTEX
8
0
10
12.4356
20
11.0950
30
0.0
0
VERTEX
8
0
10
12.4106
20
11.1383
30
0.0
0
VERTEX
8
0
10
12.8952
20
11.4181
30
0.0
0
VERTEX
8
0
10
5.4883
20
11.4181
30
0.0
0
VERTEX
8
0
10
5.8877
20
10.2415
30
0.0
0
VERTEX
8
0
10
5.9260
20
10.0490
30
0.0
0
VERTEX
8
0
10
5.9389
20
9.8531
30
0.0
0
VERTEX
8
0
10
5.9260
20
9.6572
30
0.0
0
VERTEX
8
0
10
5.8877
20
9.4647
30
0.0
0
VERTEX
8
0
10
5.8247
20
9.2788
30
0.0
0
VERTEX
8
0
10
5.7378
20
9.1028
30
0.0
0
VERTEX
8
0
10
5.6288
20
8.9396
30
0.0
0
VERTEX
8
0
10
5.2289
20
8.4836
30
0.0
0
VERTEX
8
0
10
4.6341
20
8.3653
30
0.0
0
VERTEX
8
0
10
4.4382
20
8.3525
30
0.0
0
VERTEX
8
0
10
4.2424
20
8.3653
30
0.0
0
VERTEX
8
0
10
4.0498
20
8.4036
30
0.0
0
VERTEX
8
0
10
3.8640
20
8.4667
30
0.0
0
VERTEX
8
0
10
3.6879
20
8.5535
30
0.0
0
VERTEX
8
0
10
3.5413
20
8.6515
30
0.0
0
VERTEX
8
0
10
3.5247
20
8.6626
30
0.0
0
VERTEX
8
0
10
3.3771
20
8.7920
30
0.0
0
VERTEX
8
0
10
3.2477
20
8.9396
30
0.0
0
VERTEX
8
0
10
3.1386
20
9.1028
30
0.0
0
VERTEX
8
0
10
3.0518
20
9.2788
30
0.0
0
VERTEX
8
0
10
2.9887
20
9.4647
30
0.0
0
VERTEX
8
0
10
2.9504
20
9.6572
30
0.0
0
VERTEX
8
0
10
2.9376
20
9.8531
30
0.0
0
VERTEX
8
0
10
2.9504
20
10.0490
30
0.0
0
VERTEX
8
0
10
2.9887
20
10.2415
30
0.0
0
VERTEX
8
0
10
3.3880
20
11.4179
30
0.0
0
SEQEND
8
0
0
ENDSEC
0
EOF
